<mxfile host="app.diagrams.net" agent="Mozilla/5.0 (Macintosh; Intel Mac OS X 10_15_7) AppleWebKit/537.36 (KHTML, like Gecko) Chrome/136.0.0.0 Safari/537.36 Edg/136.0.0.0" version="27.0.1">
  <diagram name="Page-1" id="AVAROVLvWfEWYIkjmklZ">
    <mxGraphModel dx="1226" dy="711" grid="1" gridSize="10" guides="1" tooltips="1" connect="1" arrows="1" fold="1" page="1" pageScale="1" pageWidth="850" pageHeight="1100" math="0" shadow="0">
      <root>
        <mxCell id="0" />
        <mxCell id="1" parent="0" />
        <mxCell id="MBiXelKvt-dua7gfafUY-29" style="edgeStyle=orthogonalEdgeStyle;rounded=0;orthogonalLoop=1;jettySize=auto;html=1;exitX=0.5;exitY=1;exitDx=0;exitDy=0;entryX=0.5;entryY=0;entryDx=0;entryDy=0;" edge="1" parent="1" source="fJX4vQ_VuAboDIyCRGbF-1" target="fJX4vQ_VuAboDIyCRGbF-4">
          <mxGeometry relative="1" as="geometry" />
        </mxCell>
        <mxCell id="MBiXelKvt-dua7gfafUY-31" style="edgeStyle=orthogonalEdgeStyle;rounded=0;orthogonalLoop=1;jettySize=auto;html=1;exitX=0.5;exitY=1;exitDx=0;exitDy=0;entryX=0.5;entryY=0;entryDx=0;entryDy=0;" edge="1" parent="1" source="fJX4vQ_VuAboDIyCRGbF-1" target="fJX4vQ_VuAboDIyCRGbF-3">
          <mxGeometry relative="1" as="geometry" />
        </mxCell>
        <mxCell id="MBiXelKvt-dua7gfafUY-32" style="edgeStyle=orthogonalEdgeStyle;rounded=0;orthogonalLoop=1;jettySize=auto;html=1;exitX=0.5;exitY=1;exitDx=0;exitDy=0;entryX=0.5;entryY=0;entryDx=0;entryDy=0;" edge="1" parent="1" source="fJX4vQ_VuAboDIyCRGbF-1" target="fJX4vQ_VuAboDIyCRGbF-6">
          <mxGeometry relative="1" as="geometry" />
        </mxCell>
        <mxCell id="fJX4vQ_VuAboDIyCRGbF-1" value="orderNo&lt;div&gt;domain&lt;/div&gt;" style="rounded=1;whiteSpace=wrap;html=1;" parent="1" vertex="1">
          <mxGeometry x="280" y="30" width="120" height="40" as="geometry" />
        </mxCell>
        <mxCell id="MBiXelKvt-dua7gfafUY-28" style="edgeStyle=none;rounded=0;orthogonalLoop=1;jettySize=auto;html=1;exitX=0.5;exitY=1;exitDx=0;exitDy=0;entryX=0.5;entryY=0;entryDx=0;entryDy=0;" edge="1" parent="1" source="fJX4vQ_VuAboDIyCRGbF-3" target="fJX4vQ_VuAboDIyCRGbF-25">
          <mxGeometry relative="1" as="geometry" />
        </mxCell>
        <mxCell id="fJX4vQ_VuAboDIyCRGbF-3" value="PFC" style="rounded=1;whiteSpace=wrap;html=1;" parent="1" vertex="1">
          <mxGeometry x="280" y="160" width="120" height="40" as="geometry" />
        </mxCell>
        <mxCell id="fJX4vQ_VuAboDIyCRGbF-13" style="edgeStyle=orthogonalEdgeStyle;rounded=0;orthogonalLoop=1;jettySize=auto;html=1;exitX=0.5;exitY=1;exitDx=0;exitDy=0;" parent="1" source="fJX4vQ_VuAboDIyCRGbF-4" target="fJX4vQ_VuAboDIyCRGbF-7" edge="1">
          <mxGeometry relative="1" as="geometry" />
        </mxCell>
        <mxCell id="fJX4vQ_VuAboDIyCRGbF-4" value="Ticket" style="rounded=1;whiteSpace=wrap;html=1;" parent="1" vertex="1">
          <mxGeometry x="60" y="160" width="120" height="40" as="geometry" />
        </mxCell>
        <mxCell id="fJX4vQ_VuAboDIyCRGbF-5" value="Coupon" style="rounded=1;whiteSpace=wrap;html=1;" parent="1" vertex="1">
          <mxGeometry x="690" y="160" width="120" height="40" as="geometry" />
        </mxCell>
        <mxCell id="fJX4vQ_VuAboDIyCRGbF-17" style="edgeStyle=orthogonalEdgeStyle;rounded=0;orthogonalLoop=1;jettySize=auto;html=1;exitX=0.5;exitY=1;exitDx=0;exitDy=0;" parent="1" source="fJX4vQ_VuAboDIyCRGbF-6" target="fJX4vQ_VuAboDIyCRGbF-15" edge="1">
          <mxGeometry relative="1" as="geometry" />
        </mxCell>
        <mxCell id="fJX4vQ_VuAboDIyCRGbF-6" value="Pre-Bundle" style="rounded=1;whiteSpace=wrap;html=1;" parent="1" vertex="1">
          <mxGeometry x="485" y="160" width="120" height="40" as="geometry" />
        </mxCell>
        <mxCell id="fJX4vQ_VuAboDIyCRGbF-11" style="edgeStyle=orthogonalEdgeStyle;rounded=0;orthogonalLoop=1;jettySize=auto;html=1;exitX=0.5;exitY=1;exitDx=0;exitDy=0;entryX=0.5;entryY=0;entryDx=0;entryDy=0;" parent="1" source="fJX4vQ_VuAboDIyCRGbF-7" target="fJX4vQ_VuAboDIyCRGbF-14" edge="1">
          <mxGeometry relative="1" as="geometry">
            <mxPoint x="320" y="390" as="targetPoint" />
          </mxGeometry>
        </mxCell>
        <mxCell id="fJX4vQ_VuAboDIyCRGbF-12" value="N" style="edgeLabel;html=1;align=center;verticalAlign=middle;resizable=0;points=[];" parent="fJX4vQ_VuAboDIyCRGbF-11" vertex="1" connectable="0">
          <mxGeometry x="-0.1" y="-1" relative="1" as="geometry">
            <mxPoint as="offset" />
          </mxGeometry>
        </mxCell>
        <mxCell id="fJX4vQ_VuAboDIyCRGbF-23" style="edgeStyle=orthogonalEdgeStyle;rounded=0;orthogonalLoop=1;jettySize=auto;html=1;exitX=1;exitY=0.5;exitDx=0;exitDy=0;entryX=0;entryY=0.5;entryDx=0;entryDy=0;" parent="1" source="fJX4vQ_VuAboDIyCRGbF-7" target="fJX4vQ_VuAboDIyCRGbF-21" edge="1">
          <mxGeometry relative="1" as="geometry" />
        </mxCell>
        <mxCell id="fJX4vQ_VuAboDIyCRGbF-7" value="&lt;div&gt;is&lt;/div&gt;purchased&lt;div&gt;DPA?&lt;/div&gt;" style="rhombus;whiteSpace=wrap;html=1;" parent="1" vertex="1">
          <mxGeometry x="85" y="260" width="70" height="80" as="geometry" />
        </mxCell>
        <mxCell id="fJX4vQ_VuAboDIyCRGbF-34" style="edgeStyle=orthogonalEdgeStyle;rounded=0;orthogonalLoop=1;jettySize=auto;html=1;exitX=0.5;exitY=1;exitDx=0;exitDy=0;entryX=0.5;entryY=0;entryDx=0;entryDy=0;" parent="1" source="fJX4vQ_VuAboDIyCRGbF-14" edge="1" target="fJX4vQ_VuAboDIyCRGbF-31">
          <mxGeometry relative="1" as="geometry">
            <mxPoint x="340" y="660" as="targetPoint" />
          </mxGeometry>
        </mxCell>
        <mxCell id="fJX4vQ_VuAboDIyCRGbF-14" value="ticket改期" style="shape=process;whiteSpace=wrap;html=1;backgroundOutline=1;" parent="1" vertex="1">
          <mxGeometry x="60" y="620" width="120" height="40" as="geometry" />
        </mxCell>
        <mxCell id="fJX4vQ_VuAboDIyCRGbF-18" style="edgeStyle=orthogonalEdgeStyle;rounded=0;orthogonalLoop=1;jettySize=auto;html=1;exitX=0.5;exitY=1;exitDx=0;exitDy=0;" parent="1" source="fJX4vQ_VuAboDIyCRGbF-15" target="fJX4vQ_VuAboDIyCRGbF-16" edge="1">
          <mxGeometry relative="1" as="geometry" />
        </mxCell>
        <mxCell id="fJX4vQ_VuAboDIyCRGbF-19" value="N" style="edgeLabel;html=1;align=center;verticalAlign=middle;resizable=0;points=[];" parent="fJX4vQ_VuAboDIyCRGbF-18" vertex="1" connectable="0">
          <mxGeometry x="-0.12" relative="1" as="geometry">
            <mxPoint as="offset" />
          </mxGeometry>
        </mxCell>
        <mxCell id="fJX4vQ_VuAboDIyCRGbF-24" style="edgeStyle=orthogonalEdgeStyle;rounded=0;orthogonalLoop=1;jettySize=auto;html=1;exitX=0;exitY=0.5;exitDx=0;exitDy=0;" parent="1" source="fJX4vQ_VuAboDIyCRGbF-15" target="fJX4vQ_VuAboDIyCRGbF-22" edge="1">
          <mxGeometry relative="1" as="geometry" />
        </mxCell>
        <mxCell id="fJX4vQ_VuAboDIyCRGbF-15" value="&lt;div&gt;is&lt;/div&gt;purchased&lt;div&gt;DPA?&lt;/div&gt;" style="rhombus;whiteSpace=wrap;html=1;" parent="1" vertex="1">
          <mxGeometry x="510" y="260" width="70" height="80" as="geometry" />
        </mxCell>
        <mxCell id="fJX4vQ_VuAboDIyCRGbF-35" style="edgeStyle=orthogonalEdgeStyle;rounded=0;orthogonalLoop=1;jettySize=auto;html=1;exitX=0.5;exitY=1;exitDx=0;exitDy=0;entryX=0.5;entryY=0;entryDx=0;entryDy=0;" parent="1" source="fJX4vQ_VuAboDIyCRGbF-16" target="fJX4vQ_VuAboDIyCRGbF-31" edge="1">
          <mxGeometry relative="1" as="geometry" />
        </mxCell>
        <mxCell id="fJX4vQ_VuAboDIyCRGbF-16" value="pre-bundle&lt;div&gt;改期&lt;/div&gt;" style="shape=process;whiteSpace=wrap;html=1;backgroundOutline=1;" parent="1" vertex="1">
          <mxGeometry x="485" y="620" width="120" height="40" as="geometry" />
        </mxCell>
        <mxCell id="fJX4vQ_VuAboDIyCRGbF-26" style="edgeStyle=orthogonalEdgeStyle;rounded=0;orthogonalLoop=1;jettySize=auto;html=1;exitX=0.5;exitY=1;exitDx=0;exitDy=0;entryX=0.75;entryY=0;entryDx=0;entryDy=0;" parent="1" source="fJX4vQ_VuAboDIyCRGbF-21" target="fJX4vQ_VuAboDIyCRGbF-14" edge="1">
          <mxGeometry relative="1" as="geometry" />
        </mxCell>
        <mxCell id="fJX4vQ_VuAboDIyCRGbF-27" style="edgeStyle=orthogonalEdgeStyle;rounded=0;orthogonalLoop=1;jettySize=auto;html=1;exitX=0.5;exitY=1;exitDx=0;exitDy=0;entryX=0.25;entryY=0;entryDx=0;entryDy=0;" parent="1" source="fJX4vQ_VuAboDIyCRGbF-21" target="fJX4vQ_VuAboDIyCRGbF-25" edge="1">
          <mxGeometry relative="1" as="geometry" />
        </mxCell>
        <mxCell id="fJX4vQ_VuAboDIyCRGbF-21" value="ticket+DPA" style="rounded=1;whiteSpace=wrap;html=1;" parent="1" vertex="1">
          <mxGeometry x="190" y="280" width="120" height="40" as="geometry" />
        </mxCell>
        <mxCell id="fJX4vQ_VuAboDIyCRGbF-29" style="edgeStyle=orthogonalEdgeStyle;rounded=0;orthogonalLoop=1;jettySize=auto;html=1;exitX=0.25;exitY=1;exitDx=0;exitDy=0;entryX=0.75;entryY=0;entryDx=0;entryDy=0;" parent="1" source="fJX4vQ_VuAboDIyCRGbF-22" target="fJX4vQ_VuAboDIyCRGbF-25" edge="1">
          <mxGeometry relative="1" as="geometry" />
        </mxCell>
        <mxCell id="fJX4vQ_VuAboDIyCRGbF-30" style="edgeStyle=orthogonalEdgeStyle;rounded=0;orthogonalLoop=1;jettySize=auto;html=1;exitX=0.75;exitY=1;exitDx=0;exitDy=0;entryX=0.25;entryY=0;entryDx=0;entryDy=0;" parent="1" source="fJX4vQ_VuAboDIyCRGbF-22" target="fJX4vQ_VuAboDIyCRGbF-16" edge="1">
          <mxGeometry relative="1" as="geometry" />
        </mxCell>
        <mxCell id="fJX4vQ_VuAboDIyCRGbF-22" value="Pre-Bundle+DPA" style="rounded=1;whiteSpace=wrap;html=1;" parent="1" vertex="1">
          <mxGeometry x="365" y="280" width="120" height="40" as="geometry" />
        </mxCell>
        <mxCell id="fJX4vQ_VuAboDIyCRGbF-33" style="edgeStyle=orthogonalEdgeStyle;rounded=0;orthogonalLoop=1;jettySize=auto;html=1;exitX=0.5;exitY=1;exitDx=0;exitDy=0;entryX=0.5;entryY=0;entryDx=0;entryDy=0;" parent="1" source="fJX4vQ_VuAboDIyCRGbF-25" target="fJX4vQ_VuAboDIyCRGbF-31" edge="1">
          <mxGeometry relative="1" as="geometry" />
        </mxCell>
        <mxCell id="fJX4vQ_VuAboDIyCRGbF-25" value="DPA改期" style="shape=process;whiteSpace=wrap;html=1;backgroundOutline=1;" parent="1" vertex="1">
          <mxGeometry x="280" y="620" width="120" height="40" as="geometry" />
        </mxCell>
        <mxCell id="fJX4vQ_VuAboDIyCRGbF-36" style="edgeStyle=orthogonalEdgeStyle;rounded=0;orthogonalLoop=1;jettySize=auto;html=1;exitX=1;exitY=0.5;exitDx=0;exitDy=0;entryX=0;entryY=0.5;entryDx=0;entryDy=0;" parent="1" source="fJX4vQ_VuAboDIyCRGbF-31" target="fJX4vQ_VuAboDIyCRGbF-32" edge="1">
          <mxGeometry relative="1" as="geometry" />
        </mxCell>
        <mxCell id="fJX4vQ_VuAboDIyCRGbF-37" value="Y" style="edgeLabel;html=1;align=center;verticalAlign=middle;resizable=0;points=[];" parent="fJX4vQ_VuAboDIyCRGbF-36" vertex="1" connectable="0">
          <mxGeometry x="0.0159" y="4" relative="1" as="geometry">
            <mxPoint as="offset" />
          </mxGeometry>
        </mxCell>
        <mxCell id="MBiXelKvt-dua7gfafUY-26" style="edgeStyle=none;rounded=0;orthogonalLoop=1;jettySize=auto;html=1;exitX=0.5;exitY=1;exitDx=0;exitDy=0;entryX=0.5;entryY=0;entryDx=0;entryDy=0;" edge="1" parent="1" source="fJX4vQ_VuAboDIyCRGbF-31" target="MBiXelKvt-dua7gfafUY-25">
          <mxGeometry relative="1" as="geometry" />
        </mxCell>
        <mxCell id="fJX4vQ_VuAboDIyCRGbF-31" value="&lt;div&gt;is&lt;/div&gt;used&lt;br&gt;&lt;div&gt;coupon&lt;/div&gt;" style="rhombus;whiteSpace=wrap;html=1;" parent="1" vertex="1">
          <mxGeometry x="305" y="750" width="70" height="80" as="geometry" />
        </mxCell>
        <mxCell id="fJX4vQ_VuAboDIyCRGbF-32" value="Coupon改期?" style="shape=process;whiteSpace=wrap;html=1;backgroundOutline=1;" parent="1" vertex="1">
          <mxGeometry x="690" y="770" width="120" height="40" as="geometry" />
        </mxCell>
        <mxCell id="fJX4vQ_VuAboDIyCRGbF-70" value="Ticket/Pre-bundle" style="rounded=1;whiteSpace=wrap;html=1;" parent="1" vertex="1">
          <mxGeometry x="1120" y="160" width="160" height="40" as="geometry" />
        </mxCell>
        <mxCell id="fJX4vQ_VuAboDIyCRGbF-80" value="" style="strokeColor=#dddddd;shadow=1;strokeWidth=1;rounded=1;absoluteArcSize=1;arcSize=2;" parent="1" vertex="1">
          <mxGeometry x="1125" y="240" width="150" height="60" as="geometry" />
        </mxCell>
        <mxCell id="fJX4vQ_VuAboDIyCRGbF-81" value="&lt;font color=&quot;#000000&quot;&gt;pre-check&lt;/font&gt;" style="editableCssRules=.*;html=1;fontColor=#999999;shape=image;verticalLabelPosition=middle;verticalAlign=middle;labelPosition=right;align=left;spacingLeft=20;part=1;points=[];imageAspect=0;image=data:image/svg+xml,PHN2ZyB4bWxucz0iaHR0cDovL3d3dy53My5vcmcvMjAwMC9zdmciIHhtbG5zOnY9Imh0dHBzOi8vdmVjdGEuaW8vbmFubyIgd2lkdGg9IjIwLjAwMDMyOTk3MTMxMzQ3NyIgaGVpZ2h0PSIyMC4wMDAxNjQwMzE5ODI0MjIiIHZpZXdCb3g9Ii0wLjAwMDE2NDgyMzAwOTk4MTc3MzggLTAuMDAwMTY0ODgzMTA5MzkxNjY2OTUgMjAuMDAwMzI5OTcxMzEzNDc3IDIwLjAwMDE2NDAzMTk4MjQyMiI+JiN4YTsJPHN0eWxlIHR5cGU9InRleHQvY3NzIj4mI3hhOwkuc3Qwe2ZpbGw6IzQyODVmNH0mI3hhOwkuc3Qxe2ZpbGw6IzY2OWRmNn0mI3hhOwkuc3Qye2ZpbGw6I2FlY2JmYX0mI3hhOwk8L3N0eWxlPiYjeGE7CTxwYXRoIGNsYXNzPSJzdDAiIGQ9Ik0xOS40MiA3bC0uMzUtLjA5TDE4IDYuNjRsLS4wOS0uMTljLS4wNS0uMDktLjA5LS4xOS0uMTQtLjI5bC0uMTQtLjI3LS4xNi0uMjgtLjE2LS4yNi0uMTctLjI2YTIuMzUgMi4zNSAwIDAgMC0uMTktLjI1bC0uMTktLjI1LS4yLS4yNC0uMi0uMjMtLjI2LS4yMi0uMjItLjIyLS4yNC0uMi0uMjMtLjItLjI1LS4xOS0uMjUtLjE5LS4yNi0uMTctLjI2LS4xNi0uMjgtLjE2LS4yNy0uMTQtLjI5LS4xNC0uMTktLjA4LS4yOS0xLjEyTDEzIC41OGEuNzguNzggMCAwIDAtLjc3LS41OEg3Ljc3QS43OC43OCAwIDAgMCA3IC41OGwtLjA5LjM1LS4yNyAxLjEyLS4xOS4wOC0uMjkuMTQtLjI3LjE0LS4yOC4xNi0uMjYuMTYtLjI2LjE3LS4yNS4xOS0uMjUuMTktLjI0LjItLjIzLjItLjIyLjIyLS4yMi4yMi0uMi4yNGEyLjIgMi4yIDAgMCAwLS4yLjIzYy0uMDcuMDgtLjEzLjE3LS4xOS4yNWEyLjM1IDIuMzUgMCAwIDAtLjE5LjI1bC0uMTcuMjYtLjE2LjI2LS4xNi4yOGMwIC4wOS0uMS4xOC0uMTQuMjdsLS4xNC4yOWMtLjA1LjA5LS4wNi4xMy0uMDguMTlsLTEuMTIuMjlMLjU4IDdhLjc4Ljc4IDAgMCAwLS41OC43N3Y0LjQ2YS43OC43OCAwIDAgMCAuNTguNzVsLjM1LjA5IDEuMTIuMjljMCAuMDYuMDYuMTIuMDguMTlzLjA5LjE5LjE0LjI5bC4xNC4yNy4xNi4yOC4xNi4yNi4xNy4yNmEyLjM1IDIuMzUgMCAwIDAgLjE5LjI1bC4xOS4yNWEyLjIgMi4yIDAgMCAwIC4yLjIzbC4yLjI0LjIyLjIyLjIyLjIyLjI0LjIuMjMuMi4yNS4xOS4yNS4xOS4yNi4xNy4yNi4xNi4yOC4xNi4yNy4xNC4yOS4xNC4xOS4wOC4yOSAxLjEyLjA5LjM1YS43OC43OCAwIDAgMCAuNzUuNThoNC40NmEuNzguNzggMCAwIDAgLjc1LS41OGwuMDktLjM1LjI5LTEuMDcuMTktLjA4LjI5LS4xNC4yNy0uMTQuMjgtLjE2LjI2LS4xNi4yNi0uMTcuMjUtLjE5LjI1LS4xOS4yNC0uMi4yMy0uMi4yMi0uMjIuMjItLjIyLjItLjI0YTIuMiAyLjIgMCAwIDAgLjItLjIzYy4wNy0uMDguMTMtLjE3LjE5LS4yNWEyLjM1IDIuMzUgMCAwIDAgLjE5LS4yNWwuMTctLjI2LjE2LS4yNi4xNi0uMjguMTQtLjI3LjE0LS4yOWMuMDUtLjA5LjA2LS4xMy4wOC0uMTlsMS4xMi0uMjkuMzUtLjA5YS43OC43OCAwIDAgMCAuNTgtLjc1VjcuNzdhLjc4Ljc4IDAgMCAwLS41OC0uNzd6TTEwIDE2LjY3QTYuNjYgNi42NiAwIDEgMSAxNi42NyAxMGE2LjUzIDYuNTMgMCAwIDEtLjE0IDEuMzNBNi42NCA2LjY0IDAgMCAxIDEwIDE2LjY3eiIvPiYjeGE7CTxwYXRoIGNsYXNzPSJzdDEiIGQ9Ik0xMCA0Ljg4QTUuMTcgNS4xNyAwIDAgMCA4Ljg5IDVsLjI3IDEuMjNhMy44NiAzLjg2IDAgMSAxLTIuOTMgNC42MSA0IDQgMCAwIDEtLjA5LS44NEg0Ljg4QTUuMTIgNS4xMiAwIDEgMCAxMCA0Ljg4eiIvPiYjeGE7CTxwYXRoIGNsYXNzPSJzdDIiIGQ9Ik0xMCA3LjQyYTIuNiAyLjYgMCAwIDAtLjU2LjA2bC4yNyAxLjI0YTEuMzIgMS4zMiAwIDEgMS0xIDEuNTcgMS40MyAxLjQzIDAgMCAxIDAtLjI5SDcuNDJBMi41OCAyLjU4IDAgMSAwIDEwIDcuNDJ6Ii8+JiN4YTs8L3N2Zz4=;" parent="fJX4vQ_VuAboDIyCRGbF-80" vertex="1">
          <mxGeometry width="30" height="30" relative="1" as="geometry">
            <mxPoint x="15" y="15" as="offset" />
          </mxGeometry>
        </mxCell>
        <mxCell id="fJX4vQ_VuAboDIyCRGbF-82" value="" style="strokeColor=#dddddd;shadow=1;strokeWidth=1;rounded=1;absoluteArcSize=1;arcSize=2;" parent="1" vertex="1">
          <mxGeometry x="1125" y="400" width="150" height="60" as="geometry" />
        </mxCell>
        <mxCell id="fJX4vQ_VuAboDIyCRGbF-83" value="&lt;font color=&quot;#000000&quot;&gt;exchange calendar&lt;/font&gt;" style="editableCssRules=.*;html=1;fontColor=#999999;shape=image;verticalLabelPosition=middle;verticalAlign=middle;labelPosition=right;align=left;spacingLeft=20;part=1;points=[];imageAspect=0;image=data:image/svg+xml,PHN2ZyB4bWxucz0iaHR0cDovL3d3dy53My5vcmcvMjAwMC9zdmciIHhtbG5zOnY9Imh0dHBzOi8vdmVjdGEuaW8vbmFubyIgd2lkdGg9IjIwLjAwMDMyOTk3MTMxMzQ3NyIgaGVpZ2h0PSIyMC4wMDAxNjQwMzE5ODI0MjIiIHZpZXdCb3g9Ii0wLjAwMDE2NDgyMzAwOTk4MTc3MzggLTAuMDAwMTY0ODgzMTA5MzkxNjY2OTUgMjAuMDAwMzI5OTcxMzEzNDc3IDIwLjAwMDE2NDAzMTk4MjQyMiI+JiN4YTsJPHN0eWxlIHR5cGU9InRleHQvY3NzIj4mI3hhOwkuc3Qwe2ZpbGw6IzQyODVmNH0mI3hhOwkuc3Qxe2ZpbGw6IzY2OWRmNn0mI3hhOwkuc3Qye2ZpbGw6I2FlY2JmYX0mI3hhOwk8L3N0eWxlPiYjeGE7CTxwYXRoIGNsYXNzPSJzdDAiIGQ9Ik0xOS40MiA3bC0uMzUtLjA5TDE4IDYuNjRsLS4wOS0uMTljLS4wNS0uMDktLjA5LS4xOS0uMTQtLjI5bC0uMTQtLjI3LS4xNi0uMjgtLjE2LS4yNi0uMTctLjI2YTIuMzUgMi4zNSAwIDAgMC0uMTktLjI1bC0uMTktLjI1LS4yLS4yNC0uMi0uMjMtLjI2LS4yMi0uMjItLjIyLS4yNC0uMi0uMjMtLjItLjI1LS4xOS0uMjUtLjE5LS4yNi0uMTctLjI2LS4xNi0uMjgtLjE2LS4yNy0uMTQtLjI5LS4xNC0uMTktLjA4LS4yOS0xLjEyTDEzIC41OGEuNzguNzggMCAwIDAtLjc3LS41OEg3Ljc3QS43OC43OCAwIDAgMCA3IC41OGwtLjA5LjM1LS4yNyAxLjEyLS4xOS4wOC0uMjkuMTQtLjI3LjE0LS4yOC4xNi0uMjYuMTYtLjI2LjE3LS4yNS4xOS0uMjUuMTktLjI0LjItLjIzLjItLjIyLjIyLS4yMi4yMi0uMi4yNGEyLjIgMi4yIDAgMCAwLS4yLjIzYy0uMDcuMDgtLjEzLjE3LS4xOS4yNWEyLjM1IDIuMzUgMCAwIDAtLjE5LjI1bC0uMTcuMjYtLjE2LjI2LS4xNi4yOGMwIC4wOS0uMS4xOC0uMTQuMjdsLS4xNC4yOWMtLjA1LjA5LS4wNi4xMy0uMDguMTlsLTEuMTIuMjlMLjU4IDdhLjc4Ljc4IDAgMCAwLS41OC43N3Y0LjQ2YS43OC43OCAwIDAgMCAuNTguNzVsLjM1LjA5IDEuMTIuMjljMCAuMDYuMDYuMTIuMDguMTlzLjA5LjE5LjE0LjI5bC4xNC4yNy4xNi4yOC4xNi4yNi4xNy4yNmEyLjM1IDIuMzUgMCAwIDAgLjE5LjI1bC4xOS4yNWEyLjIgMi4yIDAgMCAwIC4yLjIzbC4yLjI0LjIyLjIyLjIyLjIyLjI0LjIuMjMuMi4yNS4xOS4yNS4xOS4yNi4xNy4yNi4xNi4yOC4xNi4yNy4xNC4yOS4xNC4xOS4wOC4yOSAxLjEyLjA5LjM1YS43OC43OCAwIDAgMCAuNzUuNThoNC40NmEuNzguNzggMCAwIDAgLjc1LS41OGwuMDktLjM1LjI5LTEuMDcuMTktLjA4LjI5LS4xNC4yNy0uMTQuMjgtLjE2LjI2LS4xNi4yNi0uMTcuMjUtLjE5LjI1LS4xOS4yNC0uMi4yMy0uMi4yMi0uMjIuMjItLjIyLjItLjI0YTIuMiAyLjIgMCAwIDAgLjItLjIzYy4wNy0uMDguMTMtLjE3LjE5LS4yNWEyLjM1IDIuMzUgMCAwIDAgLjE5LS4yNWwuMTctLjI2LjE2LS4yNi4xNi0uMjguMTQtLjI3LjE0LS4yOWMuMDUtLjA5LjA2LS4xMy4wOC0uMTlsMS4xMi0uMjkuMzUtLjA5YS43OC43OCAwIDAgMCAuNTgtLjc1VjcuNzdhLjc4Ljc4IDAgMCAwLS41OC0uNzd6TTEwIDE2LjY3QTYuNjYgNi42NiAwIDEgMSAxNi42NyAxMGE2LjUzIDYuNTMgMCAwIDEtLjE0IDEuMzNBNi42NCA2LjY0IDAgMCAxIDEwIDE2LjY3eiIvPiYjeGE7CTxwYXRoIGNsYXNzPSJzdDEiIGQ9Ik0xMCA0Ljg4QTUuMTcgNS4xNyAwIDAgMCA4Ljg5IDVsLjI3IDEuMjNhMy44NiAzLjg2IDAgMSAxLTIuOTMgNC42MSA0IDQgMCAwIDEtLjA5LS44NEg0Ljg4QTUuMTIgNS4xMiAwIDEgMCAxMCA0Ljg4eiIvPiYjeGE7CTxwYXRoIGNsYXNzPSJzdDIiIGQ9Ik0xMCA3LjQyYTIuNiAyLjYgMCAwIDAtLjU2LjA2bC4yNyAxLjI0YTEuMzIgMS4zMiAwIDEgMS0xIDEuNTcgMS40MyAxLjQzIDAgMCAxIDAtLjI5SDcuNDJBMi41OCAyLjU4IDAgMSAwIDEwIDcuNDJ6Ii8+JiN4YTs8L3N2Zz4=;" parent="fJX4vQ_VuAboDIyCRGbF-82" vertex="1">
          <mxGeometry width="30" height="30" relative="1" as="geometry">
            <mxPoint x="15" y="15" as="offset" />
          </mxGeometry>
        </mxCell>
        <mxCell id="fJX4vQ_VuAboDIyCRGbF-85" value="" style="strokeColor=#dddddd;shadow=1;strokeWidth=1;rounded=1;absoluteArcSize=1;arcSize=2;" parent="1" vertex="1">
          <mxGeometry x="1125" y="480" width="150" height="60" as="geometry" />
        </mxCell>
        <mxCell id="fJX4vQ_VuAboDIyCRGbF-86" value="&lt;font color=&quot;#000000&quot;&gt;exchange action&lt;/font&gt;" style="editableCssRules=.*;html=1;fontColor=#999999;shape=image;verticalLabelPosition=middle;verticalAlign=middle;labelPosition=right;align=left;spacingLeft=20;part=1;points=[];imageAspect=0;image=data:image/svg+xml,PHN2ZyB4bWxucz0iaHR0cDovL3d3dy53My5vcmcvMjAwMC9zdmciIHhtbG5zOnY9Imh0dHBzOi8vdmVjdGEuaW8vbmFubyIgd2lkdGg9IjIwLjAwMDMyOTk3MTMxMzQ3NyIgaGVpZ2h0PSIyMC4wMDAxNjQwMzE5ODI0MjIiIHZpZXdCb3g9Ii0wLjAwMDE2NDgyMzAwOTk4MTc3MzggLTAuMDAwMTY0ODgzMTA5MzkxNjY2OTUgMjAuMDAwMzI5OTcxMzEzNDc3IDIwLjAwMDE2NDAzMTk4MjQyMiI+JiN4YTsJPHN0eWxlIHR5cGU9InRleHQvY3NzIj4mI3hhOwkuc3Qwe2ZpbGw6IzQyODVmNH0mI3hhOwkuc3Qxe2ZpbGw6IzY2OWRmNn0mI3hhOwkuc3Qye2ZpbGw6I2FlY2JmYX0mI3hhOwk8L3N0eWxlPiYjeGE7CTxwYXRoIGNsYXNzPSJzdDAiIGQ9Ik0xOS40MiA3bC0uMzUtLjA5TDE4IDYuNjRsLS4wOS0uMTljLS4wNS0uMDktLjA5LS4xOS0uMTQtLjI5bC0uMTQtLjI3LS4xNi0uMjgtLjE2LS4yNi0uMTctLjI2YTIuMzUgMi4zNSAwIDAgMC0uMTktLjI1bC0uMTktLjI1LS4yLS4yNC0uMi0uMjMtLjI2LS4yMi0uMjItLjIyLS4yNC0uMi0uMjMtLjItLjI1LS4xOS0uMjUtLjE5LS4yNi0uMTctLjI2LS4xNi0uMjgtLjE2LS4yNy0uMTQtLjI5LS4xNC0uMTktLjA4LS4yOS0xLjEyTDEzIC41OGEuNzguNzggMCAwIDAtLjc3LS41OEg3Ljc3QS43OC43OCAwIDAgMCA3IC41OGwtLjA5LjM1LS4yNyAxLjEyLS4xOS4wOC0uMjkuMTQtLjI3LjE0LS4yOC4xNi0uMjYuMTYtLjI2LjE3LS4yNS4xOS0uMjUuMTktLjI0LjItLjIzLjItLjIyLjIyLS4yMi4yMi0uMi4yNGEyLjIgMi4yIDAgMCAwLS4yLjIzYy0uMDcuMDgtLjEzLjE3LS4xOS4yNWEyLjM1IDIuMzUgMCAwIDAtLjE5LjI1bC0uMTcuMjYtLjE2LjI2LS4xNi4yOGMwIC4wOS0uMS4xOC0uMTQuMjdsLS4xNC4yOWMtLjA1LjA5LS4wNi4xMy0uMDguMTlsLTEuMTIuMjlMLjU4IDdhLjc4Ljc4IDAgMCAwLS41OC43N3Y0LjQ2YS43OC43OCAwIDAgMCAuNTguNzVsLjM1LjA5IDEuMTIuMjljMCAuMDYuMDYuMTIuMDguMTlzLjA5LjE5LjE0LjI5bC4xNC4yNy4xNi4yOC4xNi4yNi4xNy4yNmEyLjM1IDIuMzUgMCAwIDAgLjE5LjI1bC4xOS4yNWEyLjIgMi4yIDAgMCAwIC4yLjIzbC4yLjI0LjIyLjIyLjIyLjIyLjI0LjIuMjMuMi4yNS4xOS4yNS4xOS4yNi4xNy4yNi4xNi4yOC4xNi4yNy4xNC4yOS4xNC4xOS4wOC4yOSAxLjEyLjA5LjM1YS43OC43OCAwIDAgMCAuNzUuNThoNC40NmEuNzguNzggMCAwIDAgLjc1LS41OGwuMDktLjM1LjI5LTEuMDcuMTktLjA4LjI5LS4xNC4yNy0uMTQuMjgtLjE2LjI2LS4xNi4yNi0uMTcuMjUtLjE5LjI1LS4xOS4yNC0uMi4yMy0uMi4yMi0uMjIuMjItLjIyLjItLjI0YTIuMiAyLjIgMCAwIDAgLjItLjIzYy4wNy0uMDguMTMtLjE3LjE5LS4yNWEyLjM1IDIuMzUgMCAwIDAgLjE5LS4yNWwuMTctLjI2LjE2LS4yNi4xNi0uMjguMTQtLjI3LjE0LS4yOWMuMDUtLjA5LjA2LS4xMy4wOC0uMTlsMS4xMi0uMjkuMzUtLjA5YS43OC43OCAwIDAgMCAuNTgtLjc1VjcuNzdhLjc4Ljc4IDAgMCAwLS41OC0uNzd6TTEwIDE2LjY3QTYuNjYgNi42NiAwIDEgMSAxNi42NyAxMGE2LjUzIDYuNTMgMCAwIDEtLjE0IDEuMzNBNi42NCA2LjY0IDAgMCAxIDEwIDE2LjY3eiIvPiYjeGE7CTxwYXRoIGNsYXNzPSJzdDEiIGQ9Ik0xMCA0Ljg4QTUuMTcgNS4xNyAwIDAgMCA4Ljg5IDVsLjI3IDEuMjNhMy44NiAzLjg2IDAgMSAxLTIuOTMgNC42MSA0IDQgMCAwIDEtLjA5LS44NEg0Ljg4QTUuMTIgNS4xMiAwIDEgMCAxMCA0Ljg4eiIvPiYjeGE7CTxwYXRoIGNsYXNzPSJzdDIiIGQ9Ik0xMCA3LjQyYTIuNiAyLjYgMCAwIDAtLjU2LjA2bC4yNyAxLjI0YTEuMzIgMS4zMiAwIDEgMS0xIDEuNTcgMS40MyAxLjQzIDAgMCAxIDAtLjI5SDcuNDJBMi41OCAyLjU4IDAgMSAwIDEwIDcuNDJ6Ii8+JiN4YTs8L3N2Zz4=;" parent="fJX4vQ_VuAboDIyCRGbF-85" vertex="1">
          <mxGeometry width="30" height="30" relative="1" as="geometry">
            <mxPoint x="15" y="15" as="offset" />
          </mxGeometry>
        </mxCell>
        <mxCell id="fJX4vQ_VuAboDIyCRGbF-87" value="" style="strokeColor=#dddddd;shadow=1;strokeWidth=1;rounded=1;absoluteArcSize=1;arcSize=2;" parent="1" vertex="1">
          <mxGeometry x="1125" y="320" width="150" height="60" as="geometry" />
        </mxCell>
        <mxCell id="fJX4vQ_VuAboDIyCRGbF-88" value="&lt;font color=&quot;#000000&quot;&gt;is-used-coupon&lt;/font&gt;" style="editableCssRules=.*;html=1;fontColor=#999999;shape=image;verticalLabelPosition=middle;verticalAlign=middle;labelPosition=right;align=left;spacingLeft=20;part=1;points=[];imageAspect=0;image=data:image/svg+xml,PHN2ZyB4bWxucz0iaHR0cDovL3d3dy53My5vcmcvMjAwMC9zdmciIHhtbG5zOnY9Imh0dHBzOi8vdmVjdGEuaW8vbmFubyIgd2lkdGg9IjIwLjAwMDMyOTk3MTMxMzQ3NyIgaGVpZ2h0PSIyMC4wMDAxNjQwMzE5ODI0MjIiIHZpZXdCb3g9Ii0wLjAwMDE2NDgyMzAwOTk4MTc3MzggLTAuMDAwMTY0ODgzMTA5MzkxNjY2OTUgMjAuMDAwMzI5OTcxMzEzNDc3IDIwLjAwMDE2NDAzMTk4MjQyMiI+JiN4YTsJPHN0eWxlIHR5cGU9InRleHQvY3NzIj4mI3hhOwkuc3Qwe2ZpbGw6IzQyODVmNH0mI3hhOwkuc3Qxe2ZpbGw6IzY2OWRmNn0mI3hhOwkuc3Qye2ZpbGw6I2FlY2JmYX0mI3hhOwk8L3N0eWxlPiYjeGE7CTxwYXRoIGNsYXNzPSJzdDAiIGQ9Ik0xOS40MiA3bC0uMzUtLjA5TDE4IDYuNjRsLS4wOS0uMTljLS4wNS0uMDktLjA5LS4xOS0uMTQtLjI5bC0uMTQtLjI3LS4xNi0uMjgtLjE2LS4yNi0uMTctLjI2YTIuMzUgMi4zNSAwIDAgMC0uMTktLjI1bC0uMTktLjI1LS4yLS4yNC0uMi0uMjMtLjI2LS4yMi0uMjItLjIyLS4yNC0uMi0uMjMtLjItLjI1LS4xOS0uMjUtLjE5LS4yNi0uMTctLjI2LS4xNi0uMjgtLjE2LS4yNy0uMTQtLjI5LS4xNC0uMTktLjA4LS4yOS0xLjEyTDEzIC41OGEuNzguNzggMCAwIDAtLjc3LS41OEg3Ljc3QS43OC43OCAwIDAgMCA3IC41OGwtLjA5LjM1LS4yNyAxLjEyLS4xOS4wOC0uMjkuMTQtLjI3LjE0LS4yOC4xNi0uMjYuMTYtLjI2LjE3LS4yNS4xOS0uMjUuMTktLjI0LjItLjIzLjItLjIyLjIyLS4yMi4yMi0uMi4yNGEyLjIgMi4yIDAgMCAwLS4yLjIzYy0uMDcuMDgtLjEzLjE3LS4xOS4yNWEyLjM1IDIuMzUgMCAwIDAtLjE5LjI1bC0uMTcuMjYtLjE2LjI2LS4xNi4yOGMwIC4wOS0uMS4xOC0uMTQuMjdsLS4xNC4yOWMtLjA1LjA5LS4wNi4xMy0uMDguMTlsLTEuMTIuMjlMLjU4IDdhLjc4Ljc4IDAgMCAwLS41OC43N3Y0LjQ2YS43OC43OCAwIDAgMCAuNTguNzVsLjM1LjA5IDEuMTIuMjljMCAuMDYuMDYuMTIuMDguMTlzLjA5LjE5LjE0LjI5bC4xNC4yNy4xNi4yOC4xNi4yNi4xNy4yNmEyLjM1IDIuMzUgMCAwIDAgLjE5LjI1bC4xOS4yNWEyLjIgMi4yIDAgMCAwIC4yLjIzbC4yLjI0LjIyLjIyLjIyLjIyLjI0LjIuMjMuMi4yNS4xOS4yNS4xOS4yNi4xNy4yNi4xNi4yOC4xNi4yNy4xNC4yOS4xNC4xOS4wOC4yOSAxLjEyLjA5LjM1YS43OC43OCAwIDAgMCAuNzUuNThoNC40NmEuNzguNzggMCAwIDAgLjc1LS41OGwuMDktLjM1LjI5LTEuMDcuMTktLjA4LjI5LS4xNC4yNy0uMTQuMjgtLjE2LjI2LS4xNi4yNi0uMTcuMjUtLjE5LjI1LS4xOS4yNC0uMi4yMy0uMi4yMi0uMjIuMjItLjIyLjItLjI0YTIuMiAyLjIgMCAwIDAgLjItLjIzYy4wNy0uMDguMTMtLjE3LjE5LS4yNWEyLjM1IDIuMzUgMCAwIDAgLjE5LS4yNWwuMTctLjI2LjE2LS4yNi4xNi0uMjguMTQtLjI3LjE0LS4yOWMuMDUtLjA5LjA2LS4xMy4wOC0uMTlsMS4xMi0uMjkuMzUtLjA5YS43OC43OCAwIDAgMCAuNTgtLjc1VjcuNzdhLjc4Ljc4IDAgMCAwLS41OC0uNzd6TTEwIDE2LjY3QTYuNjYgNi42NiAwIDEgMSAxNi42NyAxMGE2LjUzIDYuNTMgMCAwIDEtLjE0IDEuMzNBNi42NCA2LjY0IDAgMCAxIDEwIDE2LjY3eiIvPiYjeGE7CTxwYXRoIGNsYXNzPSJzdDEiIGQ9Ik0xMCA0Ljg4QTUuMTcgNS4xNyAwIDAgMCA4Ljg5IDVsLjI3IDEuMjNhMy44NiAzLjg2IDAgMSAxLTIuOTMgNC42MSA0IDQgMCAwIDEtLjA5LS44NEg0Ljg4QTUuMTIgNS4xMiAwIDEgMCAxMCA0Ljg4eiIvPiYjeGE7CTxwYXRoIGNsYXNzPSJzdDIiIGQ9Ik0xMCA3LjQyYTIuNiAyLjYgMCAwIDAtLjU2LjA2bC4yNyAxLjI0YTEuMzIgMS4zMiAwIDEgMS0xIDEuNTcgMS40MyAxLjQzIDAgMCAxIDAtLjI5SDcuNDJBMi41OCAyLjU4IDAgMSAwIDEwIDcuNDJ6Ii8+JiN4YTs8L3N2Zz4=;" parent="fJX4vQ_VuAboDIyCRGbF-87" vertex="1">
          <mxGeometry width="30" height="30" relative="1" as="geometry">
            <mxPoint x="15" y="15" as="offset" />
          </mxGeometry>
        </mxCell>
        <mxCell id="fJX4vQ_VuAboDIyCRGbF-89" value="" style="strokeColor=#dddddd;shadow=1;strokeWidth=1;rounded=1;absoluteArcSize=1;arcSize=2;" parent="1" vertex="1">
          <mxGeometry x="1300" y="400" width="150" height="60" as="geometry" />
        </mxCell>
        <mxCell id="fJX4vQ_VuAboDIyCRGbF-90" value="&lt;font color=&quot;#000000&quot;&gt;is-purchased-DPA&lt;/font&gt;" style="editableCssRules=.*;html=1;fontColor=#999999;shape=image;verticalLabelPosition=middle;verticalAlign=middle;labelPosition=right;align=left;spacingLeft=20;part=1;points=[];imageAspect=0;image=data:image/svg+xml,PHN2ZyB4bWxucz0iaHR0cDovL3d3dy53My5vcmcvMjAwMC9zdmciIHhtbG5zOnY9Imh0dHBzOi8vdmVjdGEuaW8vbmFubyIgd2lkdGg9IjIwLjAwMDMyOTk3MTMxMzQ3NyIgaGVpZ2h0PSIyMC4wMDAxNjQwMzE5ODI0MjIiIHZpZXdCb3g9Ii0wLjAwMDE2NDgyMzAwOTk4MTc3MzggLTAuMDAwMTY0ODgzMTA5MzkxNjY2OTUgMjAuMDAwMzI5OTcxMzEzNDc3IDIwLjAwMDE2NDAzMTk4MjQyMiI+JiN4YTsJPHN0eWxlIHR5cGU9InRleHQvY3NzIj4mI3hhOwkuc3Qwe2ZpbGw6IzQyODVmNH0mI3hhOwkuc3Qxe2ZpbGw6IzY2OWRmNn0mI3hhOwkuc3Qye2ZpbGw6I2FlY2JmYX0mI3hhOwk8L3N0eWxlPiYjeGE7CTxwYXRoIGNsYXNzPSJzdDAiIGQ9Ik0xOS40MiA3bC0uMzUtLjA5TDE4IDYuNjRsLS4wOS0uMTljLS4wNS0uMDktLjA5LS4xOS0uMTQtLjI5bC0uMTQtLjI3LS4xNi0uMjgtLjE2LS4yNi0uMTctLjI2YTIuMzUgMi4zNSAwIDAgMC0uMTktLjI1bC0uMTktLjI1LS4yLS4yNC0uMi0uMjMtLjI2LS4yMi0uMjItLjIyLS4yNC0uMi0uMjMtLjItLjI1LS4xOS0uMjUtLjE5LS4yNi0uMTctLjI2LS4xNi0uMjgtLjE2LS4yNy0uMTQtLjI5LS4xNC0uMTktLjA4LS4yOS0xLjEyTDEzIC41OGEuNzguNzggMCAwIDAtLjc3LS41OEg3Ljc3QS43OC43OCAwIDAgMCA3IC41OGwtLjA5LjM1LS4yNyAxLjEyLS4xOS4wOC0uMjkuMTQtLjI3LjE0LS4yOC4xNi0uMjYuMTYtLjI2LjE3LS4yNS4xOS0uMjUuMTktLjI0LjItLjIzLjItLjIyLjIyLS4yMi4yMi0uMi4yNGEyLjIgMi4yIDAgMCAwLS4yLjIzYy0uMDcuMDgtLjEzLjE3LS4xOS4yNWEyLjM1IDIuMzUgMCAwIDAtLjE5LjI1bC0uMTcuMjYtLjE2LjI2LS4xNi4yOGMwIC4wOS0uMS4xOC0uMTQuMjdsLS4xNC4yOWMtLjA1LjA5LS4wNi4xMy0uMDguMTlsLTEuMTIuMjlMLjU4IDdhLjc4Ljc4IDAgMCAwLS41OC43N3Y0LjQ2YS43OC43OCAwIDAgMCAuNTguNzVsLjM1LjA5IDEuMTIuMjljMCAuMDYuMDYuMTIuMDguMTlzLjA5LjE5LjE0LjI5bC4xNC4yNy4xNi4yOC4xNi4yNi4xNy4yNmEyLjM1IDIuMzUgMCAwIDAgLjE5LjI1bC4xOS4yNWEyLjIgMi4yIDAgMCAwIC4yLjIzbC4yLjI0LjIyLjIyLjIyLjIyLjI0LjIuMjMuMi4yNS4xOS4yNS4xOS4yNi4xNy4yNi4xNi4yOC4xNi4yNy4xNC4yOS4xNC4xOS4wOC4yOSAxLjEyLjA5LjM1YS43OC43OCAwIDAgMCAuNzUuNThoNC40NmEuNzguNzggMCAwIDAgLjc1LS41OGwuMDktLjM1LjI5LTEuMDcuMTktLjA4LjI5LS4xNC4yNy0uMTQuMjgtLjE2LjI2LS4xNi4yNi0uMTcuMjUtLjE5LjI1LS4xOS4yNC0uMi4yMy0uMi4yMi0uMjIuMjItLjIyLjItLjI0YTIuMiAyLjIgMCAwIDAgLjItLjIzYy4wNy0uMDguMTMtLjE3LjE5LS4yNWEyLjM1IDIuMzUgMCAwIDAgLjE5LS4yNWwuMTctLjI2LjE2LS4yNi4xNi0uMjguMTQtLjI3LjE0LS4yOWMuMDUtLjA5LjA2LS4xMy4wOC0uMTlsMS4xMi0uMjkuMzUtLjA5YS43OC43OCAwIDAgMCAuNTgtLjc1VjcuNzdhLjc4Ljc4IDAgMCAwLS41OC0uNzd6TTEwIDE2LjY3QTYuNjYgNi42NiAwIDEgMSAxNi42NyAxMGE2LjUzIDYuNTMgMCAwIDEtLjE0IDEuMzNBNi42NCA2LjY0IDAgMCAxIDEwIDE2LjY3eiIvPiYjeGE7CTxwYXRoIGNsYXNzPSJzdDEiIGQ9Ik0xMCA0Ljg4QTUuMTcgNS4xNyAwIDAgMCA4Ljg5IDVsLjI3IDEuMjNhMy44NiAzLjg2IDAgMSAxLTIuOTMgNC42MSA0IDQgMCAwIDEtLjA5LS44NEg0Ljg4QTUuMTIgNS4xMiAwIDEgMCAxMCA0Ljg4eiIvPiYjeGE7CTxwYXRoIGNsYXNzPSJzdDIiIGQ9Ik0xMCA3LjQyYTIuNiAyLjYgMCAwIDAtLjU2LjA2bC4yNyAxLjI0YTEuMzIgMS4zMiAwIDEgMS0xIDEuNTcgMS40MyAxLjQzIDAgMCAxIDAtLjI5SDcuNDJBMi41OCAyLjU4IDAgMSAwIDEwIDcuNDJ6Ii8+JiN4YTs8L3N2Zz4=;" parent="fJX4vQ_VuAboDIyCRGbF-89" vertex="1">
          <mxGeometry width="30" height="30" relative="1" as="geometry">
            <mxPoint x="15" y="15" as="offset" />
          </mxGeometry>
        </mxCell>
        <mxCell id="MBiXelKvt-dua7gfafUY-1" value="PFC" style="rounded=1;whiteSpace=wrap;html=1;" vertex="1" parent="1">
          <mxGeometry x="1300" y="160" width="155" height="40" as="geometry" />
        </mxCell>
        <mxCell id="MBiXelKvt-dua7gfafUY-2" value="Coupon" style="rounded=1;whiteSpace=wrap;html=1;" vertex="1" parent="1">
          <mxGeometry x="1490" y="160" width="150" height="40" as="geometry" />
        </mxCell>
        <mxCell id="MBiXelKvt-dua7gfafUY-3" value="" style="strokeColor=#dddddd;shadow=1;strokeWidth=1;rounded=1;absoluteArcSize=1;arcSize=2;" vertex="1" parent="1">
          <mxGeometry x="1300" y="320" width="150" height="60" as="geometry" />
        </mxCell>
        <mxCell id="MBiXelKvt-dua7gfafUY-4" value="&lt;font color=&quot;#000000&quot;&gt;is-used-coupon&lt;/font&gt;" style="editableCssRules=.*;html=1;fontColor=#999999;shape=image;verticalLabelPosition=middle;verticalAlign=middle;labelPosition=right;align=left;spacingLeft=20;part=1;points=[];imageAspect=0;image=data:image/svg+xml,PHN2ZyB4bWxucz0iaHR0cDovL3d3dy53My5vcmcvMjAwMC9zdmciIHhtbG5zOnY9Imh0dHBzOi8vdmVjdGEuaW8vbmFubyIgd2lkdGg9IjIwLjAwMDMyOTk3MTMxMzQ3NyIgaGVpZ2h0PSIyMC4wMDAxNjQwMzE5ODI0MjIiIHZpZXdCb3g9Ii0wLjAwMDE2NDgyMzAwOTk4MTc3MzggLTAuMDAwMTY0ODgzMTA5MzkxNjY2OTUgMjAuMDAwMzI5OTcxMzEzNDc3IDIwLjAwMDE2NDAzMTk4MjQyMiI+JiN4YTsJPHN0eWxlIHR5cGU9InRleHQvY3NzIj4mI3hhOwkuc3Qwe2ZpbGw6IzQyODVmNH0mI3hhOwkuc3Qxe2ZpbGw6IzY2OWRmNn0mI3hhOwkuc3Qye2ZpbGw6I2FlY2JmYX0mI3hhOwk8L3N0eWxlPiYjeGE7CTxwYXRoIGNsYXNzPSJzdDAiIGQ9Ik0xOS40MiA3bC0uMzUtLjA5TDE4IDYuNjRsLS4wOS0uMTljLS4wNS0uMDktLjA5LS4xOS0uMTQtLjI5bC0uMTQtLjI3LS4xNi0uMjgtLjE2LS4yNi0uMTctLjI2YTIuMzUgMi4zNSAwIDAgMC0uMTktLjI1bC0uMTktLjI1LS4yLS4yNC0uMi0uMjMtLjI2LS4yMi0uMjItLjIyLS4yNC0uMi0uMjMtLjItLjI1LS4xOS0uMjUtLjE5LS4yNi0uMTctLjI2LS4xNi0uMjgtLjE2LS4yNy0uMTQtLjI5LS4xNC0uMTktLjA4LS4yOS0xLjEyTDEzIC41OGEuNzguNzggMCAwIDAtLjc3LS41OEg3Ljc3QS43OC43OCAwIDAgMCA3IC41OGwtLjA5LjM1LS4yNyAxLjEyLS4xOS4wOC0uMjkuMTQtLjI3LjE0LS4yOC4xNi0uMjYuMTYtLjI2LjE3LS4yNS4xOS0uMjUuMTktLjI0LjItLjIzLjItLjIyLjIyLS4yMi4yMi0uMi4yNGEyLjIgMi4yIDAgMCAwLS4yLjIzYy0uMDcuMDgtLjEzLjE3LS4xOS4yNWEyLjM1IDIuMzUgMCAwIDAtLjE5LjI1bC0uMTcuMjYtLjE2LjI2LS4xNi4yOGMwIC4wOS0uMS4xOC0uMTQuMjdsLS4xNC4yOWMtLjA1LjA5LS4wNi4xMy0uMDguMTlsLTEuMTIuMjlMLjU4IDdhLjc4Ljc4IDAgMCAwLS41OC43N3Y0LjQ2YS43OC43OCAwIDAgMCAuNTguNzVsLjM1LjA5IDEuMTIuMjljMCAuMDYuMDYuMTIuMDguMTlzLjA5LjE5LjE0LjI5bC4xNC4yNy4xNi4yOC4xNi4yNi4xNy4yNmEyLjM1IDIuMzUgMCAwIDAgLjE5LjI1bC4xOS4yNWEyLjIgMi4yIDAgMCAwIC4yLjIzbC4yLjI0LjIyLjIyLjIyLjIyLjI0LjIuMjMuMi4yNS4xOS4yNS4xOS4yNi4xNy4yNi4xNi4yOC4xNi4yNy4xNC4yOS4xNC4xOS4wOC4yOSAxLjEyLjA5LjM1YS43OC43OCAwIDAgMCAuNzUuNThoNC40NmEuNzguNzggMCAwIDAgLjc1LS41OGwuMDktLjM1LjI5LTEuMDcuMTktLjA4LjI5LS4xNC4yNy0uMTQuMjgtLjE2LjI2LS4xNi4yNi0uMTcuMjUtLjE5LjI1LS4xOS4yNC0uMi4yMy0uMi4yMi0uMjIuMjItLjIyLjItLjI0YTIuMiAyLjIgMCAwIDAgLjItLjIzYy4wNy0uMDguMTMtLjE3LjE5LS4yNWEyLjM1IDIuMzUgMCAwIDAgLjE5LS4yNWwuMTctLjI2LjE2LS4yNi4xNi0uMjguMTQtLjI3LjE0LS4yOWMuMDUtLjA5LjA2LS4xMy4wOC0uMTlsMS4xMi0uMjkuMzUtLjA5YS43OC43OCAwIDAgMCAuNTgtLjc1VjcuNzdhLjc4Ljc4IDAgMCAwLS41OC0uNzd6TTEwIDE2LjY3QTYuNjYgNi42NiAwIDEgMSAxNi42NyAxMGE2LjUzIDYuNTMgMCAwIDEtLjE0IDEuMzNBNi42NCA2LjY0IDAgMCAxIDEwIDE2LjY3eiIvPiYjeGE7CTxwYXRoIGNsYXNzPSJzdDEiIGQ9Ik0xMCA0Ljg4QTUuMTcgNS4xNyAwIDAgMCA4Ljg5IDVsLjI3IDEuMjNhMy44NiAzLjg2IDAgMSAxLTIuOTMgNC42MSA0IDQgMCAwIDEtLjA5LS44NEg0Ljg4QTUuMTIgNS4xMiAwIDEgMCAxMCA0Ljg4eiIvPiYjeGE7CTxwYXRoIGNsYXNzPSJzdDIiIGQ9Ik0xMCA3LjQyYTIuNiAyLjYgMCAwIDAtLjU2LjA2bC4yNyAxLjI0YTEuMzIgMS4zMiAwIDEgMS0xIDEuNTcgMS40MyAxLjQzIDAgMCAxIDAtLjI5SDcuNDJBMi41OCAyLjU4IDAgMSAwIDEwIDcuNDJ6Ii8+JiN4YTs8L3N2Zz4=;" vertex="1" parent="MBiXelKvt-dua7gfafUY-3">
          <mxGeometry width="30" height="30" relative="1" as="geometry">
            <mxPoint x="15" y="15" as="offset" />
          </mxGeometry>
        </mxCell>
        <mxCell id="MBiXelKvt-dua7gfafUY-8" value="" style="strokeColor=#dddddd;shadow=1;strokeWidth=1;rounded=1;absoluteArcSize=1;arcSize=2;" vertex="1" parent="1">
          <mxGeometry x="1300" y="240" width="150" height="60" as="geometry" />
        </mxCell>
        <mxCell id="MBiXelKvt-dua7gfafUY-9" value="&lt;font color=&quot;#000000&quot;&gt;pre-check&lt;/font&gt;" style="editableCssRules=.*;html=1;fontColor=#999999;shape=image;verticalLabelPosition=middle;verticalAlign=middle;labelPosition=right;align=left;spacingLeft=20;part=1;points=[];imageAspect=0;image=data:image/svg+xml,PHN2ZyB4bWxucz0iaHR0cDovL3d3dy53My5vcmcvMjAwMC9zdmciIHhtbG5zOnY9Imh0dHBzOi8vdmVjdGEuaW8vbmFubyIgd2lkdGg9IjIwLjAwMDMyOTk3MTMxMzQ3NyIgaGVpZ2h0PSIyMC4wMDAxNjQwMzE5ODI0MjIiIHZpZXdCb3g9Ii0wLjAwMDE2NDgyMzAwOTk4MTc3MzggLTAuMDAwMTY0ODgzMTA5MzkxNjY2OTUgMjAuMDAwMzI5OTcxMzEzNDc3IDIwLjAwMDE2NDAzMTk4MjQyMiI+JiN4YTsJPHN0eWxlIHR5cGU9InRleHQvY3NzIj4mI3hhOwkuc3Qwe2ZpbGw6IzQyODVmNH0mI3hhOwkuc3Qxe2ZpbGw6IzY2OWRmNn0mI3hhOwkuc3Qye2ZpbGw6I2FlY2JmYX0mI3hhOwk8L3N0eWxlPiYjeGE7CTxwYXRoIGNsYXNzPSJzdDAiIGQ9Ik0xOS40MiA3bC0uMzUtLjA5TDE4IDYuNjRsLS4wOS0uMTljLS4wNS0uMDktLjA5LS4xOS0uMTQtLjI5bC0uMTQtLjI3LS4xNi0uMjgtLjE2LS4yNi0uMTctLjI2YTIuMzUgMi4zNSAwIDAgMC0uMTktLjI1bC0uMTktLjI1LS4yLS4yNC0uMi0uMjMtLjI2LS4yMi0uMjItLjIyLS4yNC0uMi0uMjMtLjItLjI1LS4xOS0uMjUtLjE5LS4yNi0uMTctLjI2LS4xNi0uMjgtLjE2LS4yNy0uMTQtLjI5LS4xNC0uMTktLjA4LS4yOS0xLjEyTDEzIC41OGEuNzguNzggMCAwIDAtLjc3LS41OEg3Ljc3QS43OC43OCAwIDAgMCA3IC41OGwtLjA5LjM1LS4yNyAxLjEyLS4xOS4wOC0uMjkuMTQtLjI3LjE0LS4yOC4xNi0uMjYuMTYtLjI2LjE3LS4yNS4xOS0uMjUuMTktLjI0LjItLjIzLjItLjIyLjIyLS4yMi4yMi0uMi4yNGEyLjIgMi4yIDAgMCAwLS4yLjIzYy0uMDcuMDgtLjEzLjE3LS4xOS4yNWEyLjM1IDIuMzUgMCAwIDAtLjE5LjI1bC0uMTcuMjYtLjE2LjI2LS4xNi4yOGMwIC4wOS0uMS4xOC0uMTQuMjdsLS4xNC4yOWMtLjA1LjA5LS4wNi4xMy0uMDguMTlsLTEuMTIuMjlMLjU4IDdhLjc4Ljc4IDAgMCAwLS41OC43N3Y0LjQ2YS43OC43OCAwIDAgMCAuNTguNzVsLjM1LjA5IDEuMTIuMjljMCAuMDYuMDYuMTIuMDguMTlzLjA5LjE5LjE0LjI5bC4xNC4yNy4xNi4yOC4xNi4yNi4xNy4yNmEyLjM1IDIuMzUgMCAwIDAgLjE5LjI1bC4xOS4yNWEyLjIgMi4yIDAgMCAwIC4yLjIzbC4yLjI0LjIyLjIyLjIyLjIyLjI0LjIuMjMuMi4yNS4xOS4yNS4xOS4yNi4xNy4yNi4xNi4yOC4xNi4yNy4xNC4yOS4xNC4xOS4wOC4yOSAxLjEyLjA5LjM1YS43OC43OCAwIDAgMCAuNzUuNThoNC40NmEuNzguNzggMCAwIDAgLjc1LS41OGwuMDktLjM1LjI5LTEuMDcuMTktLjA4LjI5LS4xNC4yNy0uMTQuMjgtLjE2LjI2LS4xNi4yNi0uMTcuMjUtLjE5LjI1LS4xOS4yNC0uMi4yMy0uMi4yMi0uMjIuMjItLjIyLjItLjI0YTIuMiAyLjIgMCAwIDAgLjItLjIzYy4wNy0uMDguMTMtLjE3LjE5LS4yNWEyLjM1IDIuMzUgMCAwIDAgLjE5LS4yNWwuMTctLjI2LjE2LS4yNi4xNi0uMjguMTQtLjI3LjE0LS4yOWMuMDUtLjA5LjA2LS4xMy4wOC0uMTlsMS4xMi0uMjkuMzUtLjA5YS43OC43OCAwIDAgMCAuNTgtLjc1VjcuNzdhLjc4Ljc4IDAgMCAwLS41OC0uNzd6TTEwIDE2LjY3QTYuNjYgNi42NiAwIDEgMSAxNi42NyAxMGE2LjUzIDYuNTMgMCAwIDEtLjE0IDEuMzNBNi42NCA2LjY0IDAgMCAxIDEwIDE2LjY3eiIvPiYjeGE7CTxwYXRoIGNsYXNzPSJzdDEiIGQ9Ik0xMCA0Ljg4QTUuMTcgNS4xNyAwIDAgMCA4Ljg5IDVsLjI3IDEuMjNhMy44NiAzLjg2IDAgMSAxLTIuOTMgNC42MSA0IDQgMCAwIDEtLjA5LS44NEg0Ljg4QTUuMTIgNS4xMiAwIDEgMCAxMCA0Ljg4eiIvPiYjeGE7CTxwYXRoIGNsYXNzPSJzdDIiIGQ9Ik0xMCA3LjQyYTIuNiAyLjYgMCAwIDAtLjU2LjA2bC4yNyAxLjI0YTEuMzIgMS4zMiAwIDEgMS0xIDEuNTcgMS40MyAxLjQzIDAgMCAxIDAtLjI5SDcuNDJBMi41OCAyLjU4IDAgMSAwIDEwIDcuNDJ6Ii8+JiN4YTs8L3N2Zz4=;" vertex="1" parent="MBiXelKvt-dua7gfafUY-8">
          <mxGeometry width="30" height="30" relative="1" as="geometry">
            <mxPoint x="15" y="15" as="offset" />
          </mxGeometry>
        </mxCell>
        <mxCell id="MBiXelKvt-dua7gfafUY-10" value="" style="strokeColor=#dddddd;shadow=1;strokeWidth=1;rounded=1;absoluteArcSize=1;arcSize=2;" vertex="1" parent="1">
          <mxGeometry x="1300" y="560" width="150" height="60" as="geometry" />
        </mxCell>
        <mxCell id="MBiXelKvt-dua7gfafUY-11" value="&lt;font color=&quot;#000000&quot;&gt;exchange action&lt;/font&gt;" style="editableCssRules=.*;html=1;fontColor=#999999;shape=image;verticalLabelPosition=middle;verticalAlign=middle;labelPosition=right;align=left;spacingLeft=20;part=1;points=[];imageAspect=0;image=data:image/svg+xml,PHN2ZyB4bWxucz0iaHR0cDovL3d3dy53My5vcmcvMjAwMC9zdmciIHhtbG5zOnY9Imh0dHBzOi8vdmVjdGEuaW8vbmFubyIgd2lkdGg9IjIwLjAwMDMyOTk3MTMxMzQ3NyIgaGVpZ2h0PSIyMC4wMDAxNjQwMzE5ODI0MjIiIHZpZXdCb3g9Ii0wLjAwMDE2NDgyMzAwOTk4MTc3MzggLTAuMDAwMTY0ODgzMTA5MzkxNjY2OTUgMjAuMDAwMzI5OTcxMzEzNDc3IDIwLjAwMDE2NDAzMTk4MjQyMiI+JiN4YTsJPHN0eWxlIHR5cGU9InRleHQvY3NzIj4mI3hhOwkuc3Qwe2ZpbGw6IzQyODVmNH0mI3hhOwkuc3Qxe2ZpbGw6IzY2OWRmNn0mI3hhOwkuc3Qye2ZpbGw6I2FlY2JmYX0mI3hhOwk8L3N0eWxlPiYjeGE7CTxwYXRoIGNsYXNzPSJzdDAiIGQ9Ik0xOS40MiA3bC0uMzUtLjA5TDE4IDYuNjRsLS4wOS0uMTljLS4wNS0uMDktLjA5LS4xOS0uMTQtLjI5bC0uMTQtLjI3LS4xNi0uMjgtLjE2LS4yNi0uMTctLjI2YTIuMzUgMi4zNSAwIDAgMC0uMTktLjI1bC0uMTktLjI1LS4yLS4yNC0uMi0uMjMtLjI2LS4yMi0uMjItLjIyLS4yNC0uMi0uMjMtLjItLjI1LS4xOS0uMjUtLjE5LS4yNi0uMTctLjI2LS4xNi0uMjgtLjE2LS4yNy0uMTQtLjI5LS4xNC0uMTktLjA4LS4yOS0xLjEyTDEzIC41OGEuNzguNzggMCAwIDAtLjc3LS41OEg3Ljc3QS43OC43OCAwIDAgMCA3IC41OGwtLjA5LjM1LS4yNyAxLjEyLS4xOS4wOC0uMjkuMTQtLjI3LjE0LS4yOC4xNi0uMjYuMTYtLjI2LjE3LS4yNS4xOS0uMjUuMTktLjI0LjItLjIzLjItLjIyLjIyLS4yMi4yMi0uMi4yNGEyLjIgMi4yIDAgMCAwLS4yLjIzYy0uMDcuMDgtLjEzLjE3LS4xOS4yNWEyLjM1IDIuMzUgMCAwIDAtLjE5LjI1bC0uMTcuMjYtLjE2LjI2LS4xNi4yOGMwIC4wOS0uMS4xOC0uMTQuMjdsLS4xNC4yOWMtLjA1LjA5LS4wNi4xMy0uMDguMTlsLTEuMTIuMjlMLjU4IDdhLjc4Ljc4IDAgMCAwLS41OC43N3Y0LjQ2YS43OC43OCAwIDAgMCAuNTguNzVsLjM1LjA5IDEuMTIuMjljMCAuMDYuMDYuMTIuMDguMTlzLjA5LjE5LjE0LjI5bC4xNC4yNy4xNi4yOC4xNi4yNi4xNy4yNmEyLjM1IDIuMzUgMCAwIDAgLjE5LjI1bC4xOS4yNWEyLjIgMi4yIDAgMCAwIC4yLjIzbC4yLjI0LjIyLjIyLjIyLjIyLjI0LjIuMjMuMi4yNS4xOS4yNS4xOS4yNi4xNy4yNi4xNi4yOC4xNi4yNy4xNC4yOS4xNC4xOS4wOC4yOSAxLjEyLjA5LjM1YS43OC43OCAwIDAgMCAuNzUuNThoNC40NmEuNzguNzggMCAwIDAgLjc1LS41OGwuMDktLjM1LjI5LTEuMDcuMTktLjA4LjI5LS4xNC4yNy0uMTQuMjgtLjE2LjI2LS4xNi4yNi0uMTcuMjUtLjE5LjI1LS4xOS4yNC0uMi4yMy0uMi4yMi0uMjIuMjItLjIyLjItLjI0YTIuMiAyLjIgMCAwIDAgLjItLjIzYy4wNy0uMDguMTMtLjE3LjE5LS4yNWEyLjM1IDIuMzUgMCAwIDAgLjE5LS4yNWwuMTctLjI2LjE2LS4yNi4xNi0uMjguMTQtLjI3LjE0LS4yOWMuMDUtLjA5LjA2LS4xMy4wOC0uMTlsMS4xMi0uMjkuMzUtLjA5YS43OC43OCAwIDAgMCAuNTgtLjc1VjcuNzdhLjc4Ljc4IDAgMCAwLS41OC0uNzd6TTEwIDE2LjY3QTYuNjYgNi42NiAwIDEgMSAxNi42NyAxMGE2LjUzIDYuNTMgMCAwIDEtLjE0IDEuMzNBNi42NCA2LjY0IDAgMCAxIDEwIDE2LjY3eiIvPiYjeGE7CTxwYXRoIGNsYXNzPSJzdDEiIGQ9Ik0xMCA0Ljg4QTUuMTcgNS4xNyAwIDAgMCA4Ljg5IDVsLjI3IDEuMjNhMy44NiAzLjg2IDAgMSAxLTIuOTMgNC42MSA0IDQgMCAwIDEtLjA5LS44NEg0Ljg4QTUuMTIgNS4xMiAwIDEgMCAxMCA0Ljg4eiIvPiYjeGE7CTxwYXRoIGNsYXNzPSJzdDIiIGQ9Ik0xMCA3LjQyYTIuNiAyLjYgMCAwIDAtLjU2LjA2bC4yNyAxLjI0YTEuMzIgMS4zMiAwIDEgMS0xIDEuNTcgMS40MyAxLjQzIDAgMCAxIDAtLjI5SDcuNDJBMi41OCAyLjU4IDAgMSAwIDEwIDcuNDJ6Ii8+JiN4YTs8L3N2Zz4=;" vertex="1" parent="MBiXelKvt-dua7gfafUY-10">
          <mxGeometry width="30" height="30" relative="1" as="geometry">
            <mxPoint x="15" y="15" as="offset" />
          </mxGeometry>
        </mxCell>
        <mxCell id="MBiXelKvt-dua7gfafUY-13" value="" style="strokeColor=#dddddd;shadow=1;strokeWidth=1;rounded=1;absoluteArcSize=1;arcSize=2;" vertex="1" parent="1">
          <mxGeometry x="1490" y="400" width="150" height="60" as="geometry" />
        </mxCell>
        <mxCell id="MBiXelKvt-dua7gfafUY-14" value="&lt;font color=&quot;#000000&quot;&gt;confirm coupon&lt;/font&gt;" style="editableCssRules=.*;html=1;fontColor=#999999;shape=image;verticalLabelPosition=middle;verticalAlign=middle;labelPosition=right;align=left;spacingLeft=20;part=1;points=[];imageAspect=0;image=data:image/svg+xml,PHN2ZyB4bWxucz0iaHR0cDovL3d3dy53My5vcmcvMjAwMC9zdmciIHhtbG5zOnY9Imh0dHBzOi8vdmVjdGEuaW8vbmFubyIgd2lkdGg9IjIwLjAwMDMyOTk3MTMxMzQ3NyIgaGVpZ2h0PSIyMC4wMDAxNjQwMzE5ODI0MjIiIHZpZXdCb3g9Ii0wLjAwMDE2NDgyMzAwOTk4MTc3MzggLTAuMDAwMTY0ODgzMTA5MzkxNjY2OTUgMjAuMDAwMzI5OTcxMzEzNDc3IDIwLjAwMDE2NDAzMTk4MjQyMiI+JiN4YTsJPHN0eWxlIHR5cGU9InRleHQvY3NzIj4mI3hhOwkuc3Qwe2ZpbGw6IzQyODVmNH0mI3hhOwkuc3Qxe2ZpbGw6IzY2OWRmNn0mI3hhOwkuc3Qye2ZpbGw6I2FlY2JmYX0mI3hhOwk8L3N0eWxlPiYjeGE7CTxwYXRoIGNsYXNzPSJzdDAiIGQ9Ik0xOS40MiA3bC0uMzUtLjA5TDE4IDYuNjRsLS4wOS0uMTljLS4wNS0uMDktLjA5LS4xOS0uMTQtLjI5bC0uMTQtLjI3LS4xNi0uMjgtLjE2LS4yNi0uMTctLjI2YTIuMzUgMi4zNSAwIDAgMC0uMTktLjI1bC0uMTktLjI1LS4yLS4yNC0uMi0uMjMtLjI2LS4yMi0uMjItLjIyLS4yNC0uMi0uMjMtLjItLjI1LS4xOS0uMjUtLjE5LS4yNi0uMTctLjI2LS4xNi0uMjgtLjE2LS4yNy0uMTQtLjI5LS4xNC0uMTktLjA4LS4yOS0xLjEyTDEzIC41OGEuNzguNzggMCAwIDAtLjc3LS41OEg3Ljc3QS43OC43OCAwIDAgMCA3IC41OGwtLjA5LjM1LS4yNyAxLjEyLS4xOS4wOC0uMjkuMTQtLjI3LjE0LS4yOC4xNi0uMjYuMTYtLjI2LjE3LS4yNS4xOS0uMjUuMTktLjI0LjItLjIzLjItLjIyLjIyLS4yMi4yMi0uMi4yNGEyLjIgMi4yIDAgMCAwLS4yLjIzYy0uMDcuMDgtLjEzLjE3LS4xOS4yNWEyLjM1IDIuMzUgMCAwIDAtLjE5LjI1bC0uMTcuMjYtLjE2LjI2LS4xNi4yOGMwIC4wOS0uMS4xOC0uMTQuMjdsLS4xNC4yOWMtLjA1LjA5LS4wNi4xMy0uMDguMTlsLTEuMTIuMjlMLjU4IDdhLjc4Ljc4IDAgMCAwLS41OC43N3Y0LjQ2YS43OC43OCAwIDAgMCAuNTguNzVsLjM1LjA5IDEuMTIuMjljMCAuMDYuMDYuMTIuMDguMTlzLjA5LjE5LjE0LjI5bC4xNC4yNy4xNi4yOC4xNi4yNi4xNy4yNmEyLjM1IDIuMzUgMCAwIDAgLjE5LjI1bC4xOS4yNWEyLjIgMi4yIDAgMCAwIC4yLjIzbC4yLjI0LjIyLjIyLjIyLjIyLjI0LjIuMjMuMi4yNS4xOS4yNS4xOS4yNi4xNy4yNi4xNi4yOC4xNi4yNy4xNC4yOS4xNC4xOS4wOC4yOSAxLjEyLjA5LjM1YS43OC43OCAwIDAgMCAuNzUuNThoNC40NmEuNzguNzggMCAwIDAgLjc1LS41OGwuMDktLjM1LjI5LTEuMDcuMTktLjA4LjI5LS4xNC4yNy0uMTQuMjgtLjE2LjI2LS4xNi4yNi0uMTcuMjUtLjE5LjI1LS4xOS4yNC0uMi4yMy0uMi4yMi0uMjIuMjItLjIyLjItLjI0YTIuMiAyLjIgMCAwIDAgLjItLjIzYy4wNy0uMDguMTMtLjE3LjE5LS4yNWEyLjM1IDIuMzUgMCAwIDAgLjE5LS4yNWwuMTctLjI2LjE2LS4yNi4xNi0uMjguMTQtLjI3LjE0LS4yOWMuMDUtLjA5LjA2LS4xMy4wOC0uMTlsMS4xMi0uMjkuMzUtLjA5YS43OC43OCAwIDAgMCAuNTgtLjc1VjcuNzdhLjc4Ljc4IDAgMCAwLS41OC0uNzd6TTEwIDE2LjY3QTYuNjYgNi42NiAwIDEgMSAxNi42NyAxMGE2LjUzIDYuNTMgMCAwIDEtLjE0IDEuMzNBNi42NCA2LjY0IDAgMCAxIDEwIDE2LjY3eiIvPiYjeGE7CTxwYXRoIGNsYXNzPSJzdDEiIGQ9Ik0xMCA0Ljg4QTUuMTcgNS4xNyAwIDAgMCA4Ljg5IDVsLjI3IDEuMjNhMy44NiAzLjg2IDAgMSAxLTIuOTMgNC42MSA0IDQgMCAwIDEtLjA5LS44NEg0Ljg4QTUuMTIgNS4xMiAwIDEgMCAxMCA0Ljg4eiIvPiYjeGE7CTxwYXRoIGNsYXNzPSJzdDIiIGQ9Ik0xMCA3LjQyYTIuNiAyLjYgMCAwIDAtLjU2LjA2bC4yNyAxLjI0YTEuMzIgMS4zMiAwIDEgMS0xIDEuNTcgMS40MyAxLjQzIDAgMCAxIDAtLjI5SDcuNDJBMi41OCAyLjU4IDAgMSAwIDEwIDcuNDJ6Ii8+JiN4YTs8L3N2Zz4=;" vertex="1" parent="MBiXelKvt-dua7gfafUY-13">
          <mxGeometry width="30" height="30" relative="1" as="geometry">
            <mxPoint x="15" y="15" as="offset" />
          </mxGeometry>
        </mxCell>
        <mxCell id="MBiXelKvt-dua7gfafUY-15" value="" style="strokeColor=#dddddd;shadow=1;strokeWidth=1;rounded=1;absoluteArcSize=1;arcSize=2;" vertex="1" parent="1">
          <mxGeometry x="1490" y="320" width="150" height="60" as="geometry" />
        </mxCell>
        <mxCell id="MBiXelKvt-dua7gfafUY-16" value="&lt;font color=&quot;#000000&quot;&gt;lock coupon&lt;/font&gt;" style="editableCssRules=.*;html=1;fontColor=#999999;shape=image;verticalLabelPosition=middle;verticalAlign=middle;labelPosition=right;align=left;spacingLeft=20;part=1;points=[];imageAspect=0;image=data:image/svg+xml,PHN2ZyB4bWxucz0iaHR0cDovL3d3dy53My5vcmcvMjAwMC9zdmciIHhtbG5zOnY9Imh0dHBzOi8vdmVjdGEuaW8vbmFubyIgd2lkdGg9IjIwLjAwMDMyOTk3MTMxMzQ3NyIgaGVpZ2h0PSIyMC4wMDAxNjQwMzE5ODI0MjIiIHZpZXdCb3g9Ii0wLjAwMDE2NDgyMzAwOTk4MTc3MzggLTAuMDAwMTY0ODgzMTA5MzkxNjY2OTUgMjAuMDAwMzI5OTcxMzEzNDc3IDIwLjAwMDE2NDAzMTk4MjQyMiI+JiN4YTsJPHN0eWxlIHR5cGU9InRleHQvY3NzIj4mI3hhOwkuc3Qwe2ZpbGw6IzQyODVmNH0mI3hhOwkuc3Qxe2ZpbGw6IzY2OWRmNn0mI3hhOwkuc3Qye2ZpbGw6I2FlY2JmYX0mI3hhOwk8L3N0eWxlPiYjeGE7CTxwYXRoIGNsYXNzPSJzdDAiIGQ9Ik0xOS40MiA3bC0uMzUtLjA5TDE4IDYuNjRsLS4wOS0uMTljLS4wNS0uMDktLjA5LS4xOS0uMTQtLjI5bC0uMTQtLjI3LS4xNi0uMjgtLjE2LS4yNi0uMTctLjI2YTIuMzUgMi4zNSAwIDAgMC0uMTktLjI1bC0uMTktLjI1LS4yLS4yNC0uMi0uMjMtLjI2LS4yMi0uMjItLjIyLS4yNC0uMi0uMjMtLjItLjI1LS4xOS0uMjUtLjE5LS4yNi0uMTctLjI2LS4xNi0uMjgtLjE2LS4yNy0uMTQtLjI5LS4xNC0uMTktLjA4LS4yOS0xLjEyTDEzIC41OGEuNzguNzggMCAwIDAtLjc3LS41OEg3Ljc3QS43OC43OCAwIDAgMCA3IC41OGwtLjA5LjM1LS4yNyAxLjEyLS4xOS4wOC0uMjkuMTQtLjI3LjE0LS4yOC4xNi0uMjYuMTYtLjI2LjE3LS4yNS4xOS0uMjUuMTktLjI0LjItLjIzLjItLjIyLjIyLS4yMi4yMi0uMi4yNGEyLjIgMi4yIDAgMCAwLS4yLjIzYy0uMDcuMDgtLjEzLjE3LS4xOS4yNWEyLjM1IDIuMzUgMCAwIDAtLjE5LjI1bC0uMTcuMjYtLjE2LjI2LS4xNi4yOGMwIC4wOS0uMS4xOC0uMTQuMjdsLS4xNC4yOWMtLjA1LjA5LS4wNi4xMy0uMDguMTlsLTEuMTIuMjlMLjU4IDdhLjc4Ljc4IDAgMCAwLS41OC43N3Y0LjQ2YS43OC43OCAwIDAgMCAuNTguNzVsLjM1LjA5IDEuMTIuMjljMCAuMDYuMDYuMTIuMDguMTlzLjA5LjE5LjE0LjI5bC4xNC4yNy4xNi4yOC4xNi4yNi4xNy4yNmEyLjM1IDIuMzUgMCAwIDAgLjE5LjI1bC4xOS4yNWEyLjIgMi4yIDAgMCAwIC4yLjIzbC4yLjI0LjIyLjIyLjIyLjIyLjI0LjIuMjMuMi4yNS4xOS4yNS4xOS4yNi4xNy4yNi4xNi4yOC4xNi4yNy4xNC4yOS4xNC4xOS4wOC4yOSAxLjEyLjA5LjM1YS43OC43OCAwIDAgMCAuNzUuNThoNC40NmEuNzguNzggMCAwIDAgLjc1LS41OGwuMDktLjM1LjI5LTEuMDcuMTktLjA4LjI5LS4xNC4yNy0uMTQuMjgtLjE2LjI2LS4xNi4yNi0uMTcuMjUtLjE5LjI1LS4xOS4yNC0uMi4yMy0uMi4yMi0uMjIuMjItLjIyLjItLjI0YTIuMiAyLjIgMCAwIDAgLjItLjIzYy4wNy0uMDguMTMtLjE3LjE5LS4yNWEyLjM1IDIuMzUgMCAwIDAgLjE5LS4yNWwuMTctLjI2LjE2LS4yNi4xNi0uMjguMTQtLjI3LjE0LS4yOWMuMDUtLjA5LjA2LS4xMy4wOC0uMTlsMS4xMi0uMjkuMzUtLjA5YS43OC43OCAwIDAgMCAuNTgtLjc1VjcuNzdhLjc4Ljc4IDAgMCAwLS41OC0uNzd6TTEwIDE2LjY3QTYuNjYgNi42NiAwIDEgMSAxNi42NyAxMGE2LjUzIDYuNTMgMCAwIDEtLjE0IDEuMzNBNi42NCA2LjY0IDAgMCAxIDEwIDE2LjY3eiIvPiYjeGE7CTxwYXRoIGNsYXNzPSJzdDEiIGQ9Ik0xMCA0Ljg4QTUuMTcgNS4xNyAwIDAgMCA4Ljg5IDVsLjI3IDEuMjNhMy44NiAzLjg2IDAgMSAxLTIuOTMgNC42MSA0IDQgMCAwIDEtLjA5LS44NEg0Ljg4QTUuMTIgNS4xMiAwIDEgMCAxMCA0Ljg4eiIvPiYjeGE7CTxwYXRoIGNsYXNzPSJzdDIiIGQ9Ik0xMCA3LjQyYTIuNiAyLjYgMCAwIDAtLjU2LjA2bC4yNyAxLjI0YTEuMzIgMS4zMiAwIDEgMS0xIDEuNTcgMS40MyAxLjQzIDAgMCAxIDAtLjI5SDcuNDJBMi41OCAyLjU4IDAgMSAwIDEwIDcuNDJ6Ii8+JiN4YTs8L3N2Zz4=;" vertex="1" parent="MBiXelKvt-dua7gfafUY-15">
          <mxGeometry width="30" height="30" relative="1" as="geometry">
            <mxPoint x="15" y="15" as="offset" />
          </mxGeometry>
        </mxCell>
        <mxCell id="MBiXelKvt-dua7gfafUY-17" value="" style="strokeColor=#dddddd;shadow=1;strokeWidth=1;rounded=1;absoluteArcSize=1;arcSize=2;" vertex="1" parent="1">
          <mxGeometry x="1490" y="240" width="150" height="60" as="geometry" />
        </mxCell>
        <mxCell id="MBiXelKvt-dua7gfafUY-18" value="&lt;font color=&quot;#000000&quot;&gt;coupon calendar&lt;/font&gt;" style="editableCssRules=.*;html=1;fontColor=#999999;shape=image;verticalLabelPosition=middle;verticalAlign=middle;labelPosition=right;align=left;spacingLeft=20;part=1;points=[];imageAspect=0;image=data:image/svg+xml,PHN2ZyB4bWxucz0iaHR0cDovL3d3dy53My5vcmcvMjAwMC9zdmciIHhtbG5zOnY9Imh0dHBzOi8vdmVjdGEuaW8vbmFubyIgd2lkdGg9IjIwLjAwMDMyOTk3MTMxMzQ3NyIgaGVpZ2h0PSIyMC4wMDAxNjQwMzE5ODI0MjIiIHZpZXdCb3g9Ii0wLjAwMDE2NDgyMzAwOTk4MTc3MzggLTAuMDAwMTY0ODgzMTA5MzkxNjY2OTUgMjAuMDAwMzI5OTcxMzEzNDc3IDIwLjAwMDE2NDAzMTk4MjQyMiI+JiN4YTsJPHN0eWxlIHR5cGU9InRleHQvY3NzIj4mI3hhOwkuc3Qwe2ZpbGw6IzQyODVmNH0mI3hhOwkuc3Qxe2ZpbGw6IzY2OWRmNn0mI3hhOwkuc3Qye2ZpbGw6I2FlY2JmYX0mI3hhOwk8L3N0eWxlPiYjeGE7CTxwYXRoIGNsYXNzPSJzdDAiIGQ9Ik0xOS40MiA3bC0uMzUtLjA5TDE4IDYuNjRsLS4wOS0uMTljLS4wNS0uMDktLjA5LS4xOS0uMTQtLjI5bC0uMTQtLjI3LS4xNi0uMjgtLjE2LS4yNi0uMTctLjI2YTIuMzUgMi4zNSAwIDAgMC0uMTktLjI1bC0uMTktLjI1LS4yLS4yNC0uMi0uMjMtLjI2LS4yMi0uMjItLjIyLS4yNC0uMi0uMjMtLjItLjI1LS4xOS0uMjUtLjE5LS4yNi0uMTctLjI2LS4xNi0uMjgtLjE2LS4yNy0uMTQtLjI5LS4xNC0uMTktLjA4LS4yOS0xLjEyTDEzIC41OGEuNzguNzggMCAwIDAtLjc3LS41OEg3Ljc3QS43OC43OCAwIDAgMCA3IC41OGwtLjA5LjM1LS4yNyAxLjEyLS4xOS4wOC0uMjkuMTQtLjI3LjE0LS4yOC4xNi0uMjYuMTYtLjI2LjE3LS4yNS4xOS0uMjUuMTktLjI0LjItLjIzLjItLjIyLjIyLS4yMi4yMi0uMi4yNGEyLjIgMi4yIDAgMCAwLS4yLjIzYy0uMDcuMDgtLjEzLjE3LS4xOS4yNWEyLjM1IDIuMzUgMCAwIDAtLjE5LjI1bC0uMTcuMjYtLjE2LjI2LS4xNi4yOGMwIC4wOS0uMS4xOC0uMTQuMjdsLS4xNC4yOWMtLjA1LjA5LS4wNi4xMy0uMDguMTlsLTEuMTIuMjlMLjU4IDdhLjc4Ljc4IDAgMCAwLS41OC43N3Y0LjQ2YS43OC43OCAwIDAgMCAuNTguNzVsLjM1LjA5IDEuMTIuMjljMCAuMDYuMDYuMTIuMDguMTlzLjA5LjE5LjE0LjI5bC4xNC4yNy4xNi4yOC4xNi4yNi4xNy4yNmEyLjM1IDIuMzUgMCAwIDAgLjE5LjI1bC4xOS4yNWEyLjIgMi4yIDAgMCAwIC4yLjIzbC4yLjI0LjIyLjIyLjIyLjIyLjI0LjIuMjMuMi4yNS4xOS4yNS4xOS4yNi4xNy4yNi4xNi4yOC4xNi4yNy4xNC4yOS4xNC4xOS4wOC4yOSAxLjEyLjA5LjM1YS43OC43OCAwIDAgMCAuNzUuNThoNC40NmEuNzguNzggMCAwIDAgLjc1LS41OGwuMDktLjM1LjI5LTEuMDcuMTktLjA4LjI5LS4xNC4yNy0uMTQuMjgtLjE2LjI2LS4xNi4yNi0uMTcuMjUtLjE5LjI1LS4xOS4yNC0uMi4yMy0uMi4yMi0uMjIuMjItLjIyLjItLjI0YTIuMiAyLjIgMCAwIDAgLjItLjIzYy4wNy0uMDguMTMtLjE3LjE5LS4yNWEyLjM1IDIuMzUgMCAwIDAgLjE5LS4yNWwuMTctLjI2LjE2LS4yNi4xNi0uMjguMTQtLjI3LjE0LS4yOWMuMDUtLjA5LjA2LS4xMy4wOC0uMTlsMS4xMi0uMjkuMzUtLjA5YS43OC43OCAwIDAgMCAuNTgtLjc1VjcuNzdhLjc4Ljc4IDAgMCAwLS41OC0uNzd6TTEwIDE2LjY3QTYuNjYgNi42NiAwIDEgMSAxNi42NyAxMGE2LjUzIDYuNTMgMCAwIDEtLjE0IDEuMzNBNi42NCA2LjY0IDAgMCAxIDEwIDE2LjY3eiIvPiYjeGE7CTxwYXRoIGNsYXNzPSJzdDEiIGQ9Ik0xMCA0Ljg4QTUuMTcgNS4xNyAwIDAgMCA4Ljg5IDVsLjI3IDEuMjNhMy44NiAzLjg2IDAgMSAxLTIuOTMgNC42MSA0IDQgMCAwIDEtLjA5LS44NEg0Ljg4QTUuMTIgNS4xMiAwIDEgMCAxMCA0Ljg4eiIvPiYjeGE7CTxwYXRoIGNsYXNzPSJzdDIiIGQ9Ik0xMCA3LjQyYTIuNiAyLjYgMCAwIDAtLjU2LjA2bC4yNyAxLjI0YTEuMzIgMS4zMiAwIDEgMS0xIDEuNTcgMS40MyAxLjQzIDAgMCAxIDAtLjI5SDcuNDJBMi41OCAyLjU4IDAgMSAwIDEwIDcuNDJ6Ii8+JiN4YTs8L3N2Zz4=;" vertex="1" parent="MBiXelKvt-dua7gfafUY-17">
          <mxGeometry width="30" height="30" relative="1" as="geometry">
            <mxPoint x="15" y="15" as="offset" />
          </mxGeometry>
        </mxCell>
        <mxCell id="MBiXelKvt-dua7gfafUY-19" value="" style="strokeColor=#dddddd;shadow=1;strokeWidth=1;rounded=1;absoluteArcSize=1;arcSize=2;" vertex="1" parent="1">
          <mxGeometry x="1490" y="480" width="150" height="60" as="geometry" />
        </mxCell>
        <mxCell id="MBiXelKvt-dua7gfafUY-20" value="&lt;font color=&quot;#000000&quot;&gt;cannel coupon&lt;/font&gt;" style="editableCssRules=.*;html=1;fontColor=#999999;shape=image;verticalLabelPosition=middle;verticalAlign=middle;labelPosition=right;align=left;spacingLeft=20;part=1;points=[];imageAspect=0;image=data:image/svg+xml,PHN2ZyB4bWxucz0iaHR0cDovL3d3dy53My5vcmcvMjAwMC9zdmciIHhtbG5zOnY9Imh0dHBzOi8vdmVjdGEuaW8vbmFubyIgd2lkdGg9IjIwLjAwMDMyOTk3MTMxMzQ3NyIgaGVpZ2h0PSIyMC4wMDAxNjQwMzE5ODI0MjIiIHZpZXdCb3g9Ii0wLjAwMDE2NDgyMzAwOTk4MTc3MzggLTAuMDAwMTY0ODgzMTA5MzkxNjY2OTUgMjAuMDAwMzI5OTcxMzEzNDc3IDIwLjAwMDE2NDAzMTk4MjQyMiI+JiN4YTsJPHN0eWxlIHR5cGU9InRleHQvY3NzIj4mI3hhOwkuc3Qwe2ZpbGw6IzQyODVmNH0mI3hhOwkuc3Qxe2ZpbGw6IzY2OWRmNn0mI3hhOwkuc3Qye2ZpbGw6I2FlY2JmYX0mI3hhOwk8L3N0eWxlPiYjeGE7CTxwYXRoIGNsYXNzPSJzdDAiIGQ9Ik0xOS40MiA3bC0uMzUtLjA5TDE4IDYuNjRsLS4wOS0uMTljLS4wNS0uMDktLjA5LS4xOS0uMTQtLjI5bC0uMTQtLjI3LS4xNi0uMjgtLjE2LS4yNi0uMTctLjI2YTIuMzUgMi4zNSAwIDAgMC0uMTktLjI1bC0uMTktLjI1LS4yLS4yNC0uMi0uMjMtLjI2LS4yMi0uMjItLjIyLS4yNC0uMi0uMjMtLjItLjI1LS4xOS0uMjUtLjE5LS4yNi0uMTctLjI2LS4xNi0uMjgtLjE2LS4yNy0uMTQtLjI5LS4xNC0uMTktLjA4LS4yOS0xLjEyTDEzIC41OGEuNzguNzggMCAwIDAtLjc3LS41OEg3Ljc3QS43OC43OCAwIDAgMCA3IC41OGwtLjA5LjM1LS4yNyAxLjEyLS4xOS4wOC0uMjkuMTQtLjI3LjE0LS4yOC4xNi0uMjYuMTYtLjI2LjE3LS4yNS4xOS0uMjUuMTktLjI0LjItLjIzLjItLjIyLjIyLS4yMi4yMi0uMi4yNGEyLjIgMi4yIDAgMCAwLS4yLjIzYy0uMDcuMDgtLjEzLjE3LS4xOS4yNWEyLjM1IDIuMzUgMCAwIDAtLjE5LjI1bC0uMTcuMjYtLjE2LjI2LS4xNi4yOGMwIC4wOS0uMS4xOC0uMTQuMjdsLS4xNC4yOWMtLjA1LjA5LS4wNi4xMy0uMDguMTlsLTEuMTIuMjlMLjU4IDdhLjc4Ljc4IDAgMCAwLS41OC43N3Y0LjQ2YS43OC43OCAwIDAgMCAuNTguNzVsLjM1LjA5IDEuMTIuMjljMCAuMDYuMDYuMTIuMDguMTlzLjA5LjE5LjE0LjI5bC4xNC4yNy4xNi4yOC4xNi4yNi4xNy4yNmEyLjM1IDIuMzUgMCAwIDAgLjE5LjI1bC4xOS4yNWEyLjIgMi4yIDAgMCAwIC4yLjIzbC4yLjI0LjIyLjIyLjIyLjIyLjI0LjIuMjMuMi4yNS4xOS4yNS4xOS4yNi4xNy4yNi4xNi4yOC4xNi4yNy4xNC4yOS4xNC4xOS4wOC4yOSAxLjEyLjA5LjM1YS43OC43OCAwIDAgMCAuNzUuNThoNC40NmEuNzguNzggMCAwIDAgLjc1LS41OGwuMDktLjM1LjI5LTEuMDcuMTktLjA4LjI5LS4xNC4yNy0uMTQuMjgtLjE2LjI2LS4xNi4yNi0uMTcuMjUtLjE5LjI1LS4xOS4yNC0uMi4yMy0uMi4yMi0uMjIuMjItLjIyLjItLjI0YTIuMiAyLjIgMCAwIDAgLjItLjIzYy4wNy0uMDguMTMtLjE3LjE5LS4yNWEyLjM1IDIuMzUgMCAwIDAgLjE5LS4yNWwuMTctLjI2LjE2LS4yNi4xNi0uMjguMTQtLjI3LjE0LS4yOWMuMDUtLjA5LjA2LS4xMy4wOC0uMTlsMS4xMi0uMjkuMzUtLjA5YS43OC43OCAwIDAgMCAuNTgtLjc1VjcuNzdhLjc4Ljc4IDAgMCAwLS41OC0uNzd6TTEwIDE2LjY3QTYuNjYgNi42NiAwIDEgMSAxNi42NyAxMGE2LjUzIDYuNTMgMCAwIDEtLjE0IDEuMzNBNi42NCA2LjY0IDAgMCAxIDEwIDE2LjY3eiIvPiYjeGE7CTxwYXRoIGNsYXNzPSJzdDEiIGQ9Ik0xMCA0Ljg4QTUuMTcgNS4xNyAwIDAgMCA4Ljg5IDVsLjI3IDEuMjNhMy44NiAzLjg2IDAgMSAxLTIuOTMgNC42MSA0IDQgMCAwIDEtLjA5LS44NEg0Ljg4QTUuMTIgNS4xMiAwIDEgMCAxMCA0Ljg4eiIvPiYjeGE7CTxwYXRoIGNsYXNzPSJzdDIiIGQ9Ik0xMCA3LjQyYTIuNiAyLjYgMCAwIDAtLjU2LjA2bC4yNyAxLjI0YTEuMzIgMS4zMiAwIDEgMS0xIDEuNTcgMS40MyAxLjQzIDAgMCAxIDAtLjI5SDcuNDJBMi41OCAyLjU4IDAgMSAwIDEwIDcuNDJ6Ii8+JiN4YTs8L3N2Zz4=;" vertex="1" parent="MBiXelKvt-dua7gfafUY-19">
          <mxGeometry width="30" height="30" relative="1" as="geometry">
            <mxPoint x="15" y="15" as="offset" />
          </mxGeometry>
        </mxCell>
        <mxCell id="MBiXelKvt-dua7gfafUY-21" value="" style="strokeColor=#dddddd;shadow=1;strokeWidth=1;rounded=1;absoluteArcSize=1;arcSize=2;" vertex="1" parent="1">
          <mxGeometry x="1300" y="480" width="150" height="60" as="geometry" />
        </mxCell>
        <mxCell id="MBiXelKvt-dua7gfafUY-22" value="&lt;font color=&quot;#000000&quot;&gt;fetch inventory&lt;/font&gt;" style="editableCssRules=.*;html=1;fontColor=#999999;shape=image;verticalLabelPosition=middle;verticalAlign=middle;labelPosition=right;align=left;spacingLeft=20;part=1;points=[];imageAspect=0;image=data:image/svg+xml,PHN2ZyB4bWxucz0iaHR0cDovL3d3dy53My5vcmcvMjAwMC9zdmciIHhtbG5zOnY9Imh0dHBzOi8vdmVjdGEuaW8vbmFubyIgd2lkdGg9IjIwLjAwMDMyOTk3MTMxMzQ3NyIgaGVpZ2h0PSIyMC4wMDAxNjQwMzE5ODI0MjIiIHZpZXdCb3g9Ii0wLjAwMDE2NDgyMzAwOTk4MTc3MzggLTAuMDAwMTY0ODgzMTA5MzkxNjY2OTUgMjAuMDAwMzI5OTcxMzEzNDc3IDIwLjAwMDE2NDAzMTk4MjQyMiI+JiN4YTsJPHN0eWxlIHR5cGU9InRleHQvY3NzIj4mI3hhOwkuc3Qwe2ZpbGw6IzQyODVmNH0mI3hhOwkuc3Qxe2ZpbGw6IzY2OWRmNn0mI3hhOwkuc3Qye2ZpbGw6I2FlY2JmYX0mI3hhOwk8L3N0eWxlPiYjeGE7CTxwYXRoIGNsYXNzPSJzdDAiIGQ9Ik0xOS40MiA3bC0uMzUtLjA5TDE4IDYuNjRsLS4wOS0uMTljLS4wNS0uMDktLjA5LS4xOS0uMTQtLjI5bC0uMTQtLjI3LS4xNi0uMjgtLjE2LS4yNi0uMTctLjI2YTIuMzUgMi4zNSAwIDAgMC0uMTktLjI1bC0uMTktLjI1LS4yLS4yNC0uMi0uMjMtLjI2LS4yMi0uMjItLjIyLS4yNC0uMi0uMjMtLjItLjI1LS4xOS0uMjUtLjE5LS4yNi0uMTctLjI2LS4xNi0uMjgtLjE2LS4yNy0uMTQtLjI5LS4xNC0uMTktLjA4LS4yOS0xLjEyTDEzIC41OGEuNzguNzggMCAwIDAtLjc3LS41OEg3Ljc3QS43OC43OCAwIDAgMCA3IC41OGwtLjA5LjM1LS4yNyAxLjEyLS4xOS4wOC0uMjkuMTQtLjI3LjE0LS4yOC4xNi0uMjYuMTYtLjI2LjE3LS4yNS4xOS0uMjUuMTktLjI0LjItLjIzLjItLjIyLjIyLS4yMi4yMi0uMi4yNGEyLjIgMi4yIDAgMCAwLS4yLjIzYy0uMDcuMDgtLjEzLjE3LS4xOS4yNWEyLjM1IDIuMzUgMCAwIDAtLjE5LjI1bC0uMTcuMjYtLjE2LjI2LS4xNi4yOGMwIC4wOS0uMS4xOC0uMTQuMjdsLS4xNC4yOWMtLjA1LjA5LS4wNi4xMy0uMDguMTlsLTEuMTIuMjlMLjU4IDdhLjc4Ljc4IDAgMCAwLS41OC43N3Y0LjQ2YS43OC43OCAwIDAgMCAuNTguNzVsLjM1LjA5IDEuMTIuMjljMCAuMDYuMDYuMTIuMDguMTlzLjA5LjE5LjE0LjI5bC4xNC4yNy4xNi4yOC4xNi4yNi4xNy4yNmEyLjM1IDIuMzUgMCAwIDAgLjE5LjI1bC4xOS4yNWEyLjIgMi4yIDAgMCAwIC4yLjIzbC4yLjI0LjIyLjIyLjIyLjIyLjI0LjIuMjMuMi4yNS4xOS4yNS4xOS4yNi4xNy4yNi4xNi4yOC4xNi4yNy4xNC4yOS4xNC4xOS4wOC4yOSAxLjEyLjA5LjM1YS43OC43OCAwIDAgMCAuNzUuNThoNC40NmEuNzguNzggMCAwIDAgLjc1LS41OGwuMDktLjM1LjI5LTEuMDcuMTktLjA4LjI5LS4xNC4yNy0uMTQuMjgtLjE2LjI2LS4xNi4yNi0uMTcuMjUtLjE5LjI1LS4xOS4yNC0uMi4yMy0uMi4yMi0uMjIuMjItLjIyLjItLjI0YTIuMiAyLjIgMCAwIDAgLjItLjIzYy4wNy0uMDguMTMtLjE3LjE5LS4yNWEyLjM1IDIuMzUgMCAwIDAgLjE5LS4yNWwuMTctLjI2LjE2LS4yNi4xNi0uMjguMTQtLjI3LjE0LS4yOWMuMDUtLjA5LjA2LS4xMy4wOC0uMTlsMS4xMi0uMjkuMzUtLjA5YS43OC43OCAwIDAgMCAuNTgtLjc1VjcuNzdhLjc4Ljc4IDAgMCAwLS41OC0uNzd6TTEwIDE2LjY3QTYuNjYgNi42NiAwIDEgMSAxNi42NyAxMGE2LjUzIDYuNTMgMCAwIDEtLjE0IDEuMzNBNi42NCA2LjY0IDAgMCAxIDEwIDE2LjY3eiIvPiYjeGE7CTxwYXRoIGNsYXNzPSJzdDEiIGQ9Ik0xMCA0Ljg4QTUuMTcgNS4xNyAwIDAgMCA4Ljg5IDVsLjI3IDEuMjNhMy44NiAzLjg2IDAgMSAxLTIuOTMgNC42MSA0IDQgMCAwIDEtLjA5LS44NEg0Ljg4QTUuMTIgNS4xMiAwIDEgMCAxMCA0Ljg4eiIvPiYjeGE7CTxwYXRoIGNsYXNzPSJzdDIiIGQ9Ik0xMCA3LjQyYTIuNiAyLjYgMCAwIDAtLjU2LjA2bC4yNyAxLjI0YTEuMzIgMS4zMiAwIDEgMS0xIDEuNTcgMS40MyAxLjQzIDAgMCAxIDAtLjI5SDcuNDJBMi41OCAyLjU4IDAgMSAwIDEwIDcuNDJ6Ii8+JiN4YTs8L3N2Zz4=;" vertex="1" parent="MBiXelKvt-dua7gfafUY-21">
          <mxGeometry width="30" height="30" relative="1" as="geometry">
            <mxPoint x="15" y="15" as="offset" />
          </mxGeometry>
        </mxCell>
        <mxCell id="MBiXelKvt-dua7gfafUY-23" value="" style="strokeColor=#dddddd;shadow=1;strokeWidth=1;rounded=1;absoluteArcSize=1;arcSize=2;" vertex="1" parent="1">
          <mxGeometry x="1125" y="660" width="325" height="60" as="geometry" />
        </mxCell>
        <mxCell id="MBiXelKvt-dua7gfafUY-24" value="&lt;font color=&quot;#000000&quot;&gt;exchange result sync&lt;/font&gt;" style="editableCssRules=.*;html=1;fontColor=#999999;shape=image;verticalLabelPosition=middle;verticalAlign=middle;labelPosition=right;align=left;spacingLeft=20;part=1;points=[];imageAspect=0;image=data:image/svg+xml,PHN2ZyB4bWxucz0iaHR0cDovL3d3dy53My5vcmcvMjAwMC9zdmciIHhtbG5zOnY9Imh0dHBzOi8vdmVjdGEuaW8vbmFubyIgd2lkdGg9IjIwLjAwMDMyOTk3MTMxMzQ3NyIgaGVpZ2h0PSIyMC4wMDAxNjQwMzE5ODI0MjIiIHZpZXdCb3g9Ii0wLjAwMDE2NDgyMzAwOTk4MTc3MzggLTAuMDAwMTY0ODgzMTA5MzkxNjY2OTUgMjAuMDAwMzI5OTcxMzEzNDc3IDIwLjAwMDE2NDAzMTk4MjQyMiI+JiN4YTsJPHN0eWxlIHR5cGU9InRleHQvY3NzIj4mI3hhOwkuc3Qwe2ZpbGw6IzQyODVmNH0mI3hhOwkuc3Qxe2ZpbGw6IzY2OWRmNn0mI3hhOwkuc3Qye2ZpbGw6I2FlY2JmYX0mI3hhOwk8L3N0eWxlPiYjeGE7CTxwYXRoIGNsYXNzPSJzdDAiIGQ9Ik0xOS40MiA3bC0uMzUtLjA5TDE4IDYuNjRsLS4wOS0uMTljLS4wNS0uMDktLjA5LS4xOS0uMTQtLjI5bC0uMTQtLjI3LS4xNi0uMjgtLjE2LS4yNi0uMTctLjI2YTIuMzUgMi4zNSAwIDAgMC0uMTktLjI1bC0uMTktLjI1LS4yLS4yNC0uMi0uMjMtLjI2LS4yMi0uMjItLjIyLS4yNC0uMi0uMjMtLjItLjI1LS4xOS0uMjUtLjE5LS4yNi0uMTctLjI2LS4xNi0uMjgtLjE2LS4yNy0uMTQtLjI5LS4xNC0uMTktLjA4LS4yOS0xLjEyTDEzIC41OGEuNzguNzggMCAwIDAtLjc3LS41OEg3Ljc3QS43OC43OCAwIDAgMCA3IC41OGwtLjA5LjM1LS4yNyAxLjEyLS4xOS4wOC0uMjkuMTQtLjI3LjE0LS4yOC4xNi0uMjYuMTYtLjI2LjE3LS4yNS4xOS0uMjUuMTktLjI0LjItLjIzLjItLjIyLjIyLS4yMi4yMi0uMi4yNGEyLjIgMi4yIDAgMCAwLS4yLjIzYy0uMDcuMDgtLjEzLjE3LS4xOS4yNWEyLjM1IDIuMzUgMCAwIDAtLjE5LjI1bC0uMTcuMjYtLjE2LjI2LS4xNi4yOGMwIC4wOS0uMS4xOC0uMTQuMjdsLS4xNC4yOWMtLjA1LjA5LS4wNi4xMy0uMDguMTlsLTEuMTIuMjlMLjU4IDdhLjc4Ljc4IDAgMCAwLS41OC43N3Y0LjQ2YS43OC43OCAwIDAgMCAuNTguNzVsLjM1LjA5IDEuMTIuMjljMCAuMDYuMDYuMTIuMDguMTlzLjA5LjE5LjE0LjI5bC4xNC4yNy4xNi4yOC4xNi4yNi4xNy4yNmEyLjM1IDIuMzUgMCAwIDAgLjE5LjI1bC4xOS4yNWEyLjIgMi4yIDAgMCAwIC4yLjIzbC4yLjI0LjIyLjIyLjIyLjIyLjI0LjIuMjMuMi4yNS4xOS4yNS4xOS4yNi4xNy4yNi4xNi4yOC4xNi4yNy4xNC4yOS4xNC4xOS4wOC4yOSAxLjEyLjA5LjM1YS43OC43OCAwIDAgMCAuNzUuNThoNC40NmEuNzguNzggMCAwIDAgLjc1LS41OGwuMDktLjM1LjI5LTEuMDcuMTktLjA4LjI5LS4xNC4yNy0uMTQuMjgtLjE2LjI2LS4xNi4yNi0uMTcuMjUtLjE5LjI1LS4xOS4yNC0uMi4yMy0uMi4yMi0uMjIuMjItLjIyLjItLjI0YTIuMiAyLjIgMCAwIDAgLjItLjIzYy4wNy0uMDguMTMtLjE3LjE5LS4yNWEyLjM1IDIuMzUgMCAwIDAgLjE5LS4yNWwuMTctLjI2LjE2LS4yNi4xNi0uMjguMTQtLjI3LjE0LS4yOWMuMDUtLjA5LjA2LS4xMy4wOC0uMTlsMS4xMi0uMjkuMzUtLjA5YS43OC43OCAwIDAgMCAuNTgtLjc1VjcuNzdhLjc4Ljc4IDAgMCAwLS41OC0uNzd6TTEwIDE2LjY3QTYuNjYgNi42NiAwIDEgMSAxNi42NyAxMGE2LjUzIDYuNTMgMCAwIDEtLjE0IDEuMzNBNi42NCA2LjY0IDAgMCAxIDEwIDE2LjY3eiIvPiYjeGE7CTxwYXRoIGNsYXNzPSJzdDEiIGQ9Ik0xMCA0Ljg4QTUuMTcgNS4xNyAwIDAgMCA4Ljg5IDVsLjI3IDEuMjNhMy44NiAzLjg2IDAgMSAxLTIuOTMgNC42MSA0IDQgMCAwIDEtLjA5LS44NEg0Ljg4QTUuMTIgNS4xMiAwIDEgMCAxMCA0Ljg4eiIvPiYjeGE7CTxwYXRoIGNsYXNzPSJzdDIiIGQ9Ik0xMCA3LjQyYTIuNiAyLjYgMCAwIDAtLjU2LjA2bC4yNyAxLjI0YTEuMzIgMS4zMiAwIDEgMS0xIDEuNTcgMS40MyAxLjQzIDAgMCAxIDAtLjI5SDcuNDJBMi41OCAyLjU4IDAgMSAwIDEwIDcuNDJ6Ii8+JiN4YTs8L3N2Zz4=;" vertex="1" parent="MBiXelKvt-dua7gfafUY-23">
          <mxGeometry width="30" height="30" relative="1" as="geometry">
            <mxPoint x="15" y="15" as="offset" />
          </mxGeometry>
        </mxCell>
        <mxCell id="MBiXelKvt-dua7gfafUY-25" value="End" style="ellipse;whiteSpace=wrap;html=1;" vertex="1" parent="1">
          <mxGeometry x="280" y="880" width="120" height="40" as="geometry" />
        </mxCell>
      </root>
    </mxGraphModel>
  </diagram>
</mxfile>
